<?xml version="1.0" encoding="UTF-8"?>
<svg version="1.1" xmlns="http://www.w3.org/2000/svg" width="1229" height="1229">
<path d="M0 0 C405.57 0 811.14 0 1229 0 C1229 405.57 1229 811.14 1229 1229 C823.43 1229 417.86 1229 0 1229 C0 823.43 0 417.86 0 0 Z " fill="#004186" transform="translate(0,0)"/>
<path d="M0 0 C1.73252729 -0.00913666 1.73252729 -0.00913666 3.50005513 -0.01845789 C6.68348647 -0.03216319 9.8665874 -0.03255848 13.05003297 -0.02708292 C16.49176995 -0.02440151 19.93344217 -0.03896481 23.37515259 -0.05117798 C30.10770664 -0.07218364 36.84017449 -0.07677578 43.57275745 -0.07499009 C49.0444701 -0.07368064 54.51615593 -0.07749591 59.98786354 -0.08491516 C61.56602281 -0.0870144 63.14418208 -0.089112 64.72234136 -0.09120798 C65.90066275 -0.09277327 65.90066275 -0.09277327 67.1027886 -0.09437019 C81.94202704 -0.11325104 96.78121598 -0.11222824 111.62046144 -0.10540086 C125.19561892 -0.09982017 138.77058799 -0.12067699 152.34570142 -0.15376133 C166.29264462 -0.18748774 180.2394975 -0.20266844 194.18648225 -0.1980443 C202.01363469 -0.19579942 209.84061275 -0.20104617 217.66773033 -0.22593689 C224.32749499 -0.24693587 230.9869895 -0.25055558 237.64676519 -0.2316373 C241.04412407 -0.22247268 244.44097904 -0.22135791 247.8382988 -0.24199295 C251.52116239 -0.26009066 255.20267631 -0.24750467 258.88549805 -0.22705078 C259.95912934 -0.23956863 261.03276063 -0.25208648 262.13892621 -0.26498365 C270.20492078 -0.16867487 270.20492078 -0.16867487 273.90019703 2.74575043 C277.66365341 6.98375525 277.38810451 10.7386694 277.34992981 16.12487793 C277.34780739 17.25050896 277.34780739 17.25050896 277.34564209 18.39888 C277.34004915 20.79326378 277.327498 23.18755371 277.31477356 25.58190918 C277.30975764 27.20625679 277.3051949 28.83060586 277.30110168 30.45495605 C277.29008204 34.43480987 277.27282229 38.41459362 277.25227356 42.39440918 C277.91227356 42.06440918 278.57227356 41.73440918 279.25227356 41.39440918 C320.20609141 35.49181266 362.77110762 45.75215842 396.07258606 70.21862793 C430.76959034 96.30125862 453.10776644 132.71505182 459.62727356 175.8770752 C461.71751111 194.19464801 461.28667085 213.39051417 457.25227356 231.39440918 C457.0859845 232.16365723 456.91969543 232.93290527 456.74836731 233.72546387 C448.00489393 273.18443541 423.7133292 308.04212574 389.62385559 329.93444824 C363.38340004 346.08823908 333.35382699 356.43691935 302.25227356 355.39440918 C302.31028137 355.96546387 302.36828918 356.53651855 302.42805481 357.12487793 C303.12863905 369.71537763 296.82694922 379.70111578 290.17488098 389.86315918 C285.459791 397.18220306 281.52244936 405.50424713 283.25227356 414.39440918 C286.52231891 423.05655057 291.62387704 430.63633776 298.06477356 437.25769043 C301.06633602 440.39126605 302.19872885 441.60462467 302.50227356 446.08190918 C301.24201577 449.42159232 300.29061377 450.72910571 297.28483975 452.5865469 C292.80509094 454.36706461 287.90167384 453.9392288 283.15313721 453.90234375 C281.9239502 453.90858371 280.69476319 453.91482368 279.4283281 453.92125273 C276.02339435 453.93443797 272.6193444 453.92970554 269.21446455 453.91730785 C265.53940962 453.90825414 261.8644317 453.92222911 258.18939209 453.93322754 C250.99082174 453.95101769 243.7924182 453.94716953 236.59384131 453.93557698 C230.73929523 453.92653995 224.88479588 453.92531983 219.03024483 453.92967224 C218.19665207 453.93028517 217.36305931 453.93089811 216.50420617 453.93152961 C214.81063587 453.93280855 213.11706558 453.9341054 211.4234953 453.93541998 C195.53868689 453.9468285 179.65397077 453.93371038 163.7691775 453.91221851 C150.15664429 453.89437027 136.54424763 453.89743231 122.93171692 453.91589355 C107.1142399 453.93733519 91.29684397 453.94570563 75.47935444 453.9334445 C73.78990719 453.93217036 72.10045993 453.93091288 70.41101265 453.92967224 C69.57985053 453.92905514 68.74868842 453.92843804 67.89233957 453.92780223 C62.05238697 453.92435748 56.21248602 453.93015925 50.37254143 453.93959045 C43.2441074 453.95084948 36.11584939 453.9476898 28.98743533 453.92646748 C25.35438168 453.91600567 21.72162067 453.91175076 18.08856964 453.92506409 C14.138982 453.9393174 10.18986605 453.92221718 6.24029541 453.90234375 C4.54063532 453.91572808 4.54063532 453.91572808 2.80663866 453.9293828 C-9.12801149 453.81348836 -19.27341697 450.67003924 -28.74772644 443.39440918 C-29.61397644 442.81690918 -30.48022644 442.23940918 -31.37272644 441.64440918 C-40.72836536 432.78117231 -44.80517502 421.59645893 -45.23826694 408.84964752 C-45.26901034 406.02525861 -45.24886078 403.20278768 -45.22442627 400.37841797 C-45.22562278 398.79666253 -45.22857014 397.21490762 -45.23309892 395.63315821 C-45.24036435 391.32066461 -45.2227512 387.00858875 -45.20074117 382.69615865 C-45.18132239 378.03216284 -45.18518017 373.36817552 -45.18592834 368.70414734 C-45.18358867 359.58076191 -45.15941784 350.45756113 -45.1271124 341.33423746 C-45.10117177 333.91666282 -45.08279226 326.49910543 -45.06974602 319.08149719 C-45.06787231 318.0240486 -45.06599861 316.96660002 -45.06406812 315.87710753 C-45.0602818 313.728631 -45.05650736 311.58015445 -45.05274468 309.43167788 C-45.01650394 289.30578795 -44.95485861 269.18003598 -44.88495373 249.05423886 C-44.82569485 231.8015835 -44.79033064 214.54901001 -44.77189636 197.29626465 C-44.75046666 177.24025972 -44.71261809 157.18438831 -44.64988321 137.12846708 C-44.64324434 134.9880852 -44.63663275 132.84770322 -44.63004875 130.70732117 C-44.62680825 129.65433103 -44.62356775 128.6013409 -44.62022905 127.51644197 C-44.59861752 120.11148759 -44.58884629 112.70657241 -44.58383369 105.30158997 C-44.57747146 96.27201334 -44.55349723 87.24268863 -44.50711633 78.21322548 C-44.48393123 73.61002605 -44.46857887 69.00716742 -44.47496223 64.40390587 C-44.48059536 60.18325054 -44.46297107 55.96333123 -44.42743783 51.74282759 C-44.41860207 50.22283218 -44.41798772 48.70275983 -44.4268123 47.18276435 C-44.49205566 34.61327847 -42.15215843 23.28947781 -33.82585144 13.46081543 C-23.6750312 3.36723666 -14.05295872 -0.07017562 0 0 Z " fill="#FBFCFD" transform="translate(414.7477264404297,227.6055908203125)"/>
<path d="M0 0 C11.80953503 10.3158389 22.20463304 21.13951253 30.515625 34.47753906 C31.41125893 35.90972405 32.34615044 37.3172398 33.2890625 38.71875 C51.39461269 66.55121811 56.0384753 104.05058932 50.08520508 136.31274414 C47.87088931 146.61214265 44.87024368 156.54519949 40.5703125 166.1640625 C40.28849121 166.80714355 40.00666992 167.45022461 39.71630859 168.11279297 C28.82070018 192.5692525 10.45830042 214.13181271 -12.4296875 228.1640625 C-13.04344238 228.5470752 -13.65719727 228.93008789 -14.28955078 229.32470703 C-45.8315546 248.77147631 -85.48684735 255.93415457 -121.7421875 247.421875 C-135.06430179 243.96535604 -147.3985496 238.82373461 -159.4296875 232.1640625 C-160.09355469 231.79829102 -160.75742187 231.43251953 -161.44140625 231.05566406 C-172.52307402 224.83428288 -181.46353308 217.11352734 -190.4296875 208.1640625 C-191.02330078 207.59018799 -191.61691406 207.01631348 -192.22851562 206.42504883 C-196.14790301 202.60513558 -199.59597899 198.65863613 -202.8046875 194.2265625 C-203.50513184 193.25940308 -203.50513184 193.25940308 -204.21972656 192.27270508 C-219.73562668 170.42545279 -230.01560563 144.17494167 -230.4296875 117.1640625 C-230.45675781 115.9678125 -230.48382812 114.7715625 -230.51171875 113.5390625 C-230.5552117 109.74331447 -230.50729681 105.95915757 -230.4296875 102.1640625 C-230.42453125 100.94460938 -230.419375 99.72515625 -230.4140625 98.46875 C-229.87586265 79.74708392 -223.90222858 61.73725831 -215.4296875 45.1640625 C-215.10742188 44.53177734 -214.78515625 43.89949219 -214.453125 43.24804688 C-205.31171869 25.65269774 -192.21189206 10.13204396 -176.4296875 -1.8359375 C-175.65238281 -2.42890625 -174.87507812 -3.021875 -174.07421875 -3.6328125 C-123.320443 -40.69922159 -48.88366487 -41.0910253 0 0 Z " fill="#004084" transform="translate(806.4296875,315.8359375)"/>
<path d="M0 0 C80.19 0 160.38 0 243 0 C243 9.9 243 19.8 243 30 C239.968125 30.928125 236.93625 31.85625 233.8125 32.8125 C216.76724859 38.33836517 200.99167591 46.80335643 187 58 C186.41138184 58.47050781 185.82276367 58.94101562 185.21630859 59.42578125 C153.56806343 85.03492972 132.82980224 123.12090144 128.18530273 163.67724609 C124.80893175 205.99976722 135.54059606 248.23081468 162.90551758 281.1809082 C190.50857351 313.50010444 226.15475615 331.74789279 268 338 C268 340.64 268 343.28 268 346 C179.56 346 91.12 346 0 346 C0 231.82 0 117.64 0 0 Z " fill="#004084" transform="translate(432,244)"/>
<path d="M0 0 C1.72278181 -0.00256327 1.72278181 -0.00256327 3.4803673 -0.00517833 C6.65931291 -0.00789911 9.83809469 -0.0016634 13.01702094 0.00837779 C16.44844026 0.01702587 19.87985214 0.01409117 23.3112793 0.01257324 C29.25348082 0.01152525 35.19563837 0.01779289 41.13782883 0.02904892 C49.72920051 0.04531257 58.32055095 0.05051281 66.91193636 0.0530249 C80.85134731 0.05740065 94.79073483 0.07070648 108.73013306 0.08963013 C122.26984541 0.10799204 135.80955139 0.12214703 149.34927368 0.13064575 C150.60144731 0.13143392 150.60144731 0.13143392 151.87891738 0.13223802 C156.06683349 0.13484812 160.25474964 0.13737553 164.44266582 0.13986182 C199.1779906 0.16059057 233.91328818 0.19581282 268.64859009 0.24050903 C268.08269165 1.43289185 267.51679321 2.62527466 266.93374634 3.85379028 C266.19277172 5.42015434 265.4518912 6.98656291 264.71109009 8.55300903 C264.1513147 9.73153442 264.1513147 9.73153442 263.58023071 10.93386841 C263.22251587 11.69119263 262.86480103 12.44851685 262.49624634 13.22879028 C262.1663269 13.92528687 261.83640747 14.62178345 261.49649048 15.33938599 C257.79378026 23.64143161 258.38724159 35.44348868 260.66030884 44.08816528 C262.2180506 47.86323317 263.83731836 51.17654611 266.31655884 54.42800903 C267.64859009 56.24050903 267.64859009 56.24050903 267.64859009 58.24050903 C232.3099366 58.35504326 196.97132078 58.44310296 161.63252063 58.49583568 C157.45704999 58.50208894 153.28157971 58.50856058 149.10610962 58.51516724 C147.85925892 58.51713456 147.85925892 58.51713456 146.58721933 58.51914164 C133.14166087 58.54087688 119.6962097 58.58028798 106.25071481 58.62627301 C92.44643207 58.67309012 78.64220538 58.70081552 64.83784652 58.71095151 C56.32508535 58.7177998 47.81262746 58.73940106 39.29995969 58.78009137 C33.45635132 58.80659469 27.61289892 58.81449294 21.76923487 58.80801592 C18.40142991 58.80482461 15.03457804 58.81235534 11.66679573 58.83653641 C8.00530148 58.86153151 4.34508914 58.85538894 0.68356323 58.84178162 C-0.89236748 58.86362793 -0.89236748 58.86362793 -2.50013518 58.88591558 C-12.1268563 58.78967115 -21.7465664 55.77012946 -28.88656616 49.04910278 C-34.24465425 42.43365003 -37.02275769 34.6994911 -36.35140991 26.24050903 C-33.76712823 15.80997453 -28.60536161 8.78941006 -19.44125366 3.24832153 C-12.89374716 0.09083242 -7.1441049 -0.03882438 0 0 Z " fill="#023F84" transform="translate(422.3514099121094,606.7594909667969)"/>
<path d="M0 0 C61.38 0 122.76 0 186 0 C186 7.59 186 15.18 186 23 C180.39 23 174.78 23 169 23 C169 67.22 169 111.44 169 157 C161.74 157 154.48 157 147 157 C147 112.78 147 68.56 147 23 C140.73 23 134.46 23 128 23 C128 67.22 128 111.44 128 157 C120.74 157 113.48 157 106 157 C106 112.78 106 68.56 106 23 C94.78 23 83.56 23 72 23 C72.99 25.97 72.99 25.97 74 29 C75.18629338 36.52690851 75.22093301 44.01774901 75.24023438 51.62329102 C75.24984572 53.90093872 75.28089299 56.17764487 75.3125 58.45507812 C75.36948562 66.14075431 74.99870359 73.60131351 73.734375 81.19140625 C73.62603333 81.87371811 73.51769165 82.55602997 73.40606689 83.25901794 C71.76052993 92.08477591 67.09326766 97.78703181 60 103 C50.5601026 108.9953589 39.15231708 110.57084028 28.22265625 108.46484375 C18.95182095 105.9136214 13.18286191 101.26818523 8.1875 93 C5.66982548 86.56913993 5.74537124 78.0595333 8.3359375 71.7421875 C10.9763409 67.39110021 14.08592107 64.63802631 19 63 C26.3081007 62.6519952 26.3081007 62.6519952 28.97265625 63.9921875 C32.47990825 65.73567693 36.17403787 65.48617198 40 65 C42.40083438 63.64114884 42.40083438 63.64114884 44 62 C44.66 62 45.32 62 46 62 C46.433125 60.88625 46.433125 60.88625 46.875 59.75 C48 57 48 57 49.05371094 55.08813477 C50.08300106 52.81684519 50.25769497 51.31826086 50.265625 48.83984375 C50.26820313 48.04513672 50.27078125 47.25042969 50.2734375 46.43164062 C50.26183594 45.19704102 50.26183594 45.19704102 50.25 43.9375 C50.25773438 43.14150391 50.26546875 42.34550781 50.2734375 41.52539062 C50.25240415 34.96824464 49.2121029 29.66656596 48 23 C32.16 23 16.32 23 0 23 C-1.13818182 16.17090909 -1.13818182 16.17090909 -1.125 12.625 C-1.12757813 11.93664062 -1.13015625 11.24828125 -1.1328125 10.5390625 C-0.94824834 7.01062994 -0.43824651 3.50597209 0 0 Z " fill="#FEFEFE" transform="translate(627,352)"/>
<path d="M0 0 C0 114.18 0 228.36 0 346 C-4.62 346.99 -9.24 347.98 -14 349 C-18.09003818 350.47960536 -18.09003818 350.47960536 -21.375 352.1875 C-22.45523437 352.71730469 -23.53546875 353.24710938 -24.6484375 353.79296875 C-25.42445313 354.19128906 -26.20046875 354.58960938 -27 355 C-27.09154567 312.20438825 -27.16203372 269.4087878 -27.20426132 226.61309755 C-27.20926417 221.56123805 -27.21444146 216.50937874 -27.21972656 211.45751953 C-27.2207758 210.45178084 -27.22182505 209.44604214 -27.22290608 208.40982652 C-27.24031363 192.12278766 -27.27185327 175.83580524 -27.30861118 159.54879987 C-27.34601083 142.83814139 -27.36823379 126.12751247 -27.37635398 109.41681385 C-27.38184377 99.10452907 -27.39918589 88.79240384 -27.43166587 78.48016816 C-27.45280169 71.40969149 -27.45920215 64.33929735 -27.45400551 57.26879138 C-27.45144228 53.18880399 -27.45538507 49.1090955 -27.4768219 45.02915764 C-27.49631435 41.29197024 -27.49725285 37.5552488 -27.48359558 33.81803977 C-27.48111031 31.82966152 -27.49833816 29.8412886 -27.51632524 27.85299015 C-27.46158918 19.67554649 -26.53940579 14.20118544 -21.140625 7.79296875 C-14.06902882 1.78795629 -9.37691741 0 0 0 Z " fill="#003D7F" transform="translate(415,244)"/>
<path d="M0 0 C7.2072402 -0.09342513 14.41434602 -0.16412708 21.62207317 -0.20724869 C24.97043768 -0.22796447 28.31806905 -0.25820278 31.66625977 -0.30175781 C35.53152161 -0.35074902 39.39620105 -0.37307739 43.26171875 -0.390625 C44.44142746 -0.41127014 45.62113617 -0.43191528 46.83659363 -0.45318604 C58.33840831 -0.45623372 70.29810619 1.96748264 79 10 C84.36037044 16.00361489 84.77771715 22.52167569 84.47265625 30.34375 C83.32812791 39.19729157 79.05594823 44.81867618 72.29296875 50.4375 C69.20343702 52.54280271 66.66740009 53.37576169 63 54 C63.35263916 54.50394287 63.70527832 55.00788574 64.06860352 55.52709961 C69.18090417 62.99430844 73.42637457 70.88229613 77.70117188 78.84960938 C83.62573769 90.4600026 83.62573769 90.4600026 93.9375 97.5 C94.948125 97.665 95.95875 97.83 97 98 C96.67 100.31 96.34 102.62 96 105 C86.1 105 76.2 105 66 105 C64.59105469 102.08671875 63.18210937 99.1734375 61.73046875 96.171875 C60.36129519 93.34829656 58.99065597 90.52543414 57.61987305 87.70263672 C56.66879291 85.74211803 55.71923562 83.78085982 54.77124023 81.81884766 C53.40749445 78.99705831 52.03827466 76.17798332 50.66796875 73.359375 C50.24597702 72.48319519 49.82398529 71.60701538 49.38920593 70.70428467 C48.98901749 69.88373596 48.58882904 69.06318726 48.17651367 68.21777344 C47.82787766 67.49829529 47.47924164 66.77881714 47.12004089 66.03753662 C45.85216678 63.73106733 44.84172345 61.90298371 43 60 C40.69 59.34 38.38 58.68 36 58 C36.33 69.88 36.66 81.76 37 94 C41.94697719 96.13946057 41.94697719 96.13946057 47 98 C47 100.31 47 102.62 47 105 C31.49 105 15.98 105 0 105 C0 102.69 0 100.38 0 98 C0.78246094 97.80664062 1.56492187 97.61328125 2.37109375 97.4140625 C3.38300781 97.15367187 4.39492188 96.89328125 5.4375 96.625 C6.44683594 96.36976563 7.45617187 96.11453125 8.49609375 95.8515625 C11.15570324 95.27426046 11.15570324 95.27426046 12 93 C12.09301163 90.40617823 12.12580286 87.83945361 12.11352539 85.24560547 C12.11367142 84.44552063 12.11381744 83.64543579 12.1139679 82.82110596 C12.1132698 80.16977247 12.10548221 77.51850875 12.09765625 74.8671875 C12.0957917 73.03158608 12.09436797 71.19598417 12.09336853 69.36038208 C12.08954623 64.52376945 12.07971839 59.68718673 12.06866455 54.85058594 C12.05844426 49.91732183 12.05386958 44.98405289 12.04882812 40.05078125 C12.03809588 30.36717434 12.02102289 20.68358965 12 11 C6.06 9.515 6.06 9.515 0 8 C0 5.36 0 2.72 0 0 Z " fill="#FBFDFD" transform="translate(420,743)"/>
<path d="M0 0 C14.19 0 28.38 0 43 0 C43 2.31 43 4.62 43 7 C39.7 7.99 36.4 8.98 33 10 C33.60369179 16.44491633 34.679802 22.57124197 36.1796875 28.86328125 C36.49983322 30.23313423 36.49983322 30.23313423 36.82644653 31.63066101 C37.5044174 34.5257786 38.18967991 37.41911438 38.875 40.3125 C39.32728264 42.24142872 39.7791093 44.17046442 40.23046875 46.09960938 C42.41692075 55.41818257 44.66220464 64.71806292 47 74 C47.30614227 72.87485992 47.30614227 72.87485992 47.61846924 71.72698975 C49.55636694 64.60718455 51.49756016 57.48828958 53.44232559 50.37035751 C54.44168016 46.7122301 55.43982239 43.05378146 56.43505859 39.39453125 C57.39819895 35.85347517 58.36470052 32.31335137 59.33339691 28.77381134 C59.69969676 27.43316604 60.0648484 26.0922064 60.42874908 24.7509079 C62.69555506 16.39936002 65.19064881 8.18567817 68 0 C72.62 0 77.24 0 82 0 C97.26964975 50.95281129 97.26964975 50.95281129 103 72 C105.0327756 68.41281577 106.0080934 64.62723667 107.0234375 60.6640625 C107.21088531 59.94826019 107.39833313 59.23245789 107.59146118 58.4949646 C108.19016294 56.2060447 108.78290217 53.91563621 109.375 51.625 C110.15139398 48.6374308 110.93060218 45.65060443 111.7109375 42.6640625 C111.9964447 41.56721634 111.9964447 41.56721634 112.28771973 40.44821167 C113.8220055 34.58803343 115.48634982 28.77408072 117.21435547 22.96777344 C118.27342384 18.96714103 118.71565131 15.12305595 119 11 C115.37 10.01 111.74 9.02 108 8 C107.95758277 5.66705225 107.95907063 3.33297433 108 1 C109 0 109 0 111.86743164 -0.11352539 C113.11903076 -0.10828857 114.37062988 -0.10305176 115.66015625 -0.09765625 C116.65685585 -0.09553383 116.65685585 -0.09553383 117.6736908 -0.09336853 C119.80333899 -0.08775518 121.93288339 -0.07520054 124.0625 -0.0625 C125.50325369 -0.05748671 126.94400903 -0.05292351 128.38476562 -0.04882812 C131.92321102 -0.03778145 135.46159539 -0.02050792 139 0 C139.33 2.31 139.66 4.62 140 7 C139.05125 7.45375 138.1025 7.9075 137.125 8.375 C133.24656842 10.37479545 133.24656842 10.37479545 131.2612915 14.05482483 C131.03101257 14.90435226 130.80073364 15.7538797 130.56347656 16.62915039 C130.16331329 18.08338661 130.16331329 18.08338661 129.75506592 19.56700134 C129.46980042 20.62899246 129.18453491 21.69098358 128.890625 22.78515625 C128.26266141 25.07576356 127.63439384 27.36628755 127.00585938 29.65673828 C126.6777124 30.86082336 126.34956543 32.06490845 126.01147461 33.30548096 C124.34352013 39.39786286 122.63099319 45.47765719 120.921875 51.55859375 C120.22901861 54.02925536 119.53631099 56.4999587 118.84375 58.97070312 C118.32748047 60.81160522 118.32748047 60.81160522 117.80078125 62.68969727 C117.0927577 65.21499224 116.38508255 67.74038491 115.67773438 70.26586914 C114.63497405 73.98868555 113.59104243 77.7111718 112.546875 81.43359375 C112.23433777 82.55035995 111.92180054 83.66712616 111.59979248 84.81773376 C110.20309422 89.79276806 108.79356044 94.76391167 107.34082031 99.72290039 C107.10598938 100.52603165 106.87115845 101.3291629 106.62921143 102.15663147 C106 104 106 104 105 105 C102.64686445 105.07271741 100.29166332 105.08370868 97.9375 105.0625 C96.00197266 105.04896484 96.00197266 105.04896484 94.02734375 105.03515625 C93.02832031 105.02355469 92.02929688 105.01195312 91 105 C83.34913495 81.50498159 76.40331376 57.86398777 70 34 C68.5223977 36.75720356 67.55008288 39.33160453 66.80859375 42.3671875 C66.59058105 43.23802979 66.37256836 44.10887207 66.14794922 45.00610352 C65.79627686 46.42620728 65.79627686 46.42620728 65.4375 47.875 C62.36364354 59.9889761 58.78658992 71.9262465 55.1484375 83.87890625 C53.01494104 90.89688434 50.99834013 97.9425137 49 105 C44.05 105 39.1 105 34 105 C31.13511849 98.08322999 29.37974816 90.94926367 27.61209106 83.69189453 C26.64830142 79.73847854 25.6662413 75.78957937 24.6875 71.83984375 C24.47766983 70.99122772 24.26783966 70.14261169 24.051651 69.26828003 C21.52584109 59.06122794 18.95582445 48.86544204 16.36740112 38.67410278 C15.83180603 36.56200002 15.29804625 34.44943099 14.7661438 32.33639526 C14.01642325 29.35855631 13.26087549 26.38225334 12.50390625 23.40625 C12.28029419 22.51301529 12.05668213 21.61978058 11.82629395 20.69947815 C11.61492798 19.87374802 11.40356201 19.04801788 11.18579102 18.19726562 C11.00419937 17.47978149 10.82260773 16.76229736 10.63551331 16.02307129 C9.32526713 11.72916506 9.32526713 11.72916506 6.0546875 8.953125 C5.33539062 8.72109375 4.61609375 8.4890625 3.875 8.25 C3.15054688 8.00765625 2.42609375 7.7653125 1.6796875 7.515625 C1.12539063 7.34546875 0.57109375 7.1753125 0 7 C0 4.69 0 2.38 0 0 Z " fill="#FBFDFD" transform="translate(635,743)"/>
<path d="M0 0 C8.99432389 7.35899227 14.72415437 16.74360222 16.75 28.25 C17.03700778 31.52647258 17.0838574 34.77471625 17.0625 38.0625 C17.05831055 38.94325195 17.05412109 39.82400391 17.04980469 40.73144531 C16.93629475 47.27879492 16.20647018 53.13018516 13.75 59.25 C13.36714844 60.28060547 13.36714844 60.28060547 12.9765625 61.33203125 C8.66695847 71.35482595 0.32547406 78.48584788 -9.25 83.25 C-9.85972656 83.58902344 -10.46945312 83.92804688 -11.09765625 84.27734375 C-19.46409083 88.26748947 -31.02508061 87.26071549 -39.6875 84.6875 C-49.73726033 80.77395697 -55.45056407 74.77146161 -60.25 65.25 C-60.8275 64.115625 -61.405 62.98125 -62 61.8125 C-67.34645181 46.57511234 -65.91675936 31.52953983 -59.125 16.9375 C-53.29969637 6.07738279 -45.71594481 -0.26611097 -34.25 -4.75 C-22.21154135 -7.92519217 -10.7532842 -5.79022996 0 0 Z " fill="#FAFCFD" transform="translate(630.25,884.75)"/>
<path d="M0 0 C0 2.31 0 4.62 0 7 C-3.3 8.32 -6.6 9.64 -10 11 C-10.33 22.55 -10.66 34.1 -11 46 C1.21 46 13.42 46 26 46 C25.505 28.675 25.505 28.675 25 11 C19.52410021 8.9319261 19.52410021 8.9319261 14 7 C14 4.69 14 2.38 14 0 C18.31894955 -0.17025626 22.63813218 -0.33046988 26.95776367 -0.48217773 C28.42107675 -0.53489097 29.88430095 -0.59014521 31.34741211 -0.64819336 C40.58880844 -1.01277675 49.80740771 -1.29767663 59 0 C60 1 60 1 60.0625 4.0625 C60.041875 5.031875 60.02125 6.00125 60 7 C59.28972656 7.20496094 58.57945312 7.40992188 57.84765625 7.62109375 C56.92855469 7.89050781 56.00945312 8.15992188 55.0625 8.4375 C54.14597656 8.70433594 53.22945312 8.97117187 52.28515625 9.24609375 C50.0597507 9.79026051 50.0597507 9.79026051 49 11 C48.90492179 13.58639038 48.87443624 16.1459856 48.88647461 18.73266602 C48.88632858 19.5423584 48.88618256 20.35205078 48.8860321 21.1862793 C48.88673146 23.87551508 48.8945249 26.56468249 48.90234375 29.25390625 C48.90420785 31.11335716 48.90563179 32.97280856 48.90663147 34.83226013 C48.91045729 39.73629096 48.92028812 44.64029236 48.93133545 49.54431152 C48.94154819 54.54451092 48.94612879 59.54471506 48.95117188 64.54492188 C48.96191033 74.36329421 48.97898752 84.18164466 49 94 C50.27057182 94.47985967 51.54146848 94.9588593 52.8125 95.4375 C53.52019531 95.70433594 54.22789062 95.97117187 54.95703125 96.24609375 C56.62672396 96.86225186 58.31157704 97.43719235 60 98 C60.04254356 99.99954746 60.04080783 102.00041636 60 104 C58.45498549 105.54501451 57.0133978 105.12719131 54.86328125 105.12939453 C53.54686646 105.13412277 53.54686646 105.13412277 52.20385742 105.13894653 C51.24970947 105.1369223 50.29556152 105.13489807 49.3125 105.1328125 C47.85324097 105.13424759 47.85324097 105.13424759 46.36450195 105.13571167 C44.303222 105.13639358 42.24193992 105.13453853 40.18066406 105.13037109 C37.01362312 105.125023 33.846724 105.13031572 30.6796875 105.13671875 C28.68229135 105.13605797 26.68489529 105.13477681 24.6875 105.1328125 C23.73335205 105.13483673 22.7792041 105.13686096 21.79614258 105.13894653 C20.91853271 105.13579437 20.04092285 105.13264221 19.13671875 105.12939453 C18.36030029 105.12859894 17.58388184 105.12780334 16.78393555 105.12698364 C15 105 15 105 14 104 C13.95907063 101.66702567 13.95758277 99.33294775 14 97 C14.62648438 96.86722656 15.25296875 96.73445312 15.8984375 96.59765625 C17.12433594 96.33275391 17.12433594 96.33275391 18.375 96.0625 C19.18710937 95.88847656 19.99921875 95.71445312 20.8359375 95.53515625 C23.029463 95.07669307 23.029463 95.07669307 25 94 C25.33 81.46 25.66 68.92 26 56 C13.79 56 1.58 56 -11 56 C-10.87625 62.06375 -10.7525 68.1275 -10.625 74.375 C-10.59100098 76.28845215 -10.55700195 78.2019043 -10.52197266 80.17333984 C-10.48677503 81.68589057 -10.45085471 83.19842472 -10.4140625 84.7109375 C-10.39702271 85.89393433 -10.39702271 85.89393433 -10.37963867 87.10083008 C-10.43126848 91.51993678 -10.43126848 91.51993678 -8 95 C-6.03309626 95.67292501 -6.03309626 95.67292501 -3.875 96.125 C-2.59625 96.41375 -1.3175 96.7025 0 97 C0 99.64 0 102.28 0 105 C-6.39037231 105.02527062 -12.78073183 105.04283317 -19.17114258 105.05493164 C-21.34692873 105.05997308 -23.52271147 105.06680607 -25.69848633 105.07543945 C-28.81853067 105.08751338 -31.93853038 105.09323005 -35.05859375 105.09765625 C-36.52733192 105.10539818 -36.52733192 105.10539818 -38.02574158 105.11329651 C-38.92659988 105.11337204 -39.82745819 105.11344757 -40.75561523 105.11352539 C-41.95141457 105.11685631 -41.95141457 105.11685631 -43.17137146 105.12025452 C-45 105 -45 105 -46 104 C-46.04080783 102.00041636 -46.04254356 99.99954746 -46 98 C-42.37 97.01 -38.74 96.02 -35 95 C-34.02420135 85.26227228 -33.86880844 75.63096201 -33.90234375 65.859375 C-33.90421343 64.23984827 -33.90563473 62.62032096 -33.90663147 61.00079346 C-33.91041337 56.77917871 -33.92020566 52.55759945 -33.93133545 48.33599854 C-33.94164364 44.01176432 -33.94614906 39.68752426 -33.95117188 35.36328125 C-33.96183269 26.90883804 -33.97885579 18.45442346 -34 10 C-39.94 8.515 -39.94 8.515 -46 7 C-46 1 -46 1 -45 0 C-30.03969084 -1.90532239 -14.9906713 -0.88645997 0 0 Z " fill="#FDFEFE" transform="translate(568,743)"/>
<path d="M0 0 C1.32783508 0.01561981 1.32783508 0.01561981 2.68249512 0.03155518 C4.11679871 0.05799103 4.11679871 0.05799103 5.58007812 0.08496094 C7.06610535 0.1097049 7.06610535 0.1097049 8.58215332 0.13494873 C10.68372973 0.17247246 12.78525395 0.21302179 14.88671875 0.25634766 C18.07090353 0.3185463 21.25493486 0.36034996 24.43945312 0.40136719 C26.48635268 0.44046689 28.53322922 0.48079386 30.58007812 0.52246094 C31.52008667 0.53198792 32.46009521 0.54151489 33.42858887 0.55133057 C45.0255546 0.84457714 54.65835146 3.74988789 63.32617188 11.62792969 C72.39884269 21.25465674 75.04452153 33.86179956 74.78710938 46.62402344 C74.18490258 58.42727667 69.96427105 69.92667233 61.73632812 78.63183594 C47.44054717 91.39982351 27.87834898 91.24687178 9.67382812 91.25683594 C8.46919922 91.26908203 7.26457031 91.28132812 6.0234375 91.29394531 C4.86779297 91.29587891 3.71214844 91.2978125 2.52148438 91.29980469 C1.4812915 91.30391357 0.44109863 91.30802246 -0.63061523 91.31225586 C-3.39544682 91.06873922 -5.03456905 90.49223055 -7.38867188 89.06933594 C-7.38867188 87.08933594 -7.38867188 85.10933594 -7.38867188 83.06933594 C-6.75058594 82.9365625 -6.1125 82.80378906 -5.45507812 82.66699219 C-4.21564453 82.40208984 -4.21564453 82.40208984 -2.95117188 82.13183594 C-1.71560547 81.87080078 -1.71560547 81.87080078 -0.45507812 81.60449219 C1.58794016 81.261806 1.58794016 81.261806 2.61132812 80.06933594 C2.73534726 77.89202205 2.78934323 75.7107014 2.81665039 73.5300293 C2.82654999 72.84713333 2.83644958 72.16423737 2.84664917 71.46064758 C2.87834748 69.19352741 2.90305426 66.92638625 2.92773438 64.65917969 C2.94829673 63.09118593 2.969293 61.52319781 2.9907074 59.95521545 C3.04600237 55.82063346 3.09537875 51.68600083 3.14355469 47.55133057 C3.19371565 43.3352811 3.24942986 39.11930551 3.3046875 34.90332031 C3.41235983 26.62538791 3.51378448 18.34739386 3.61132812 10.06933594 C2.90105469 9.9365625 2.19078125 9.80378906 1.45898438 9.66699219 C0.53988281 9.49039063 -0.37921875 9.31378906 -1.32617188 9.13183594 C-2.24269531 8.9578125 -3.15921875 8.78378906 -4.10351562 8.60449219 C-6.38867188 8.06933594 -6.38867188 8.06933594 -7.38867188 7.06933594 C-7.4294797 5.0697523 -7.43121544 3.0688834 -7.38867188 1.06933594 C-4.55902059 0.12611884 -2.92070106 -0.04109293 0 0 Z " fill="#FAFCFD" transform="translate(223.388671875,879.9306640625)"/>
<path d="M0 0 C0.95519531 0.00257813 1.91039062 0.00515625 2.89453125 0.0078125 C3.83683594 0.00523437 4.77914062 0.00265625 5.75 0 C8.80507916 0.13721624 11.70324867 0.57210642 14.70703125 1.1328125 C14.89064209 1.66382568 15.07425293 2.19483887 15.26342773 2.74194336 C20.57056367 18.08762949 25.88837466 33.42961468 31.20925903 48.77053833 C31.94802454 50.90061106 32.68669496 53.03071676 33.42526245 55.16085815 C33.78048981 56.18535065 34.13571716 57.20984314 34.50170898 58.26538086 C34.85320007 59.27994858 35.20469116 60.2945163 35.5668335 61.33982849 C36.2648191 63.34930007 36.96574733 65.35775216 37.66973877 67.36512756 C39.37083274 72.22310477 41.02402769 77.08736679 42.5793457 81.99414062 C42.88009003 82.91792511 43.18083435 83.84170959 43.49069214 84.79348755 C44.05317807 86.52576243 44.59833791 88.26379925 45.12258911 90.00802612 C46.44929818 94.03308184 47.01637845 95.6953728 50.70361328 98.03076172 C53.48639507 98.83699685 55.81789984 99.19550613 58.70703125 99.1328125 C58.37703125 101.4428125 58.04703125 103.7528125 57.70703125 106.1328125 C42.52703125 106.1328125 27.34703125 106.1328125 11.70703125 106.1328125 C11.70703125 103.8228125 11.70703125 101.5128125 11.70703125 99.1328125 C17.15203125 98.1428125 17.15203125 98.1428125 22.70703125 97.1328125 C22.34609375 95.79605469 21.98515625 94.45929688 21.61328125 93.08203125 C21.14433629 91.32817712 20.67559698 89.57426799 20.20703125 87.8203125 C19.84931641 86.49870117 19.84931641 86.49870117 19.484375 85.15039062 C19.25878906 84.30283203 19.03320312 83.45527344 18.80078125 82.58203125 C18.59130859 81.80174561 18.38183594 81.02145996 18.16601562 80.2175293 C17.70703125 78.1328125 17.70703125 78.1328125 17.70703125 75.1328125 C6.15703125 75.1328125 -5.39296875 75.1328125 -17.29296875 75.1328125 C-19.04386555 82.13639968 -20.76620868 89.08622754 -22.29296875 96.1328125 C-18.66296875 97.1228125 -15.03296875 98.1128125 -11.29296875 99.1328125 C-11.29296875 101.4428125 -11.29296875 103.7528125 -11.29296875 106.1328125 C-22.18296875 106.1328125 -33.07296875 106.1328125 -44.29296875 106.1328125 C-44.29296875 103.8228125 -44.29296875 101.5128125 -44.29296875 99.1328125 C-43.05546875 98.6996875 -41.81796875 98.2665625 -40.54296875 97.8203125 C-37.90159639 96.48305832 -36.57037149 95.66248849 -35.18530273 93.01782227 C-34.91016846 92.17018311 -34.63503418 91.32254395 -34.3515625 90.44921875 C-33.8568042 88.96675659 -33.8568042 88.96675659 -33.35205078 87.4543457 C-33.00255371 86.35823975 -32.65305664 85.26213379 -32.29296875 84.1328125 C-31.48709187 81.70048349 -30.68109433 79.26819446 -29.875 76.8359375 C-29.42828559 75.47322916 -28.98209546 74.11034886 -28.53637695 72.74731445 C-23.0117086 55.87584384 -17.144638 39.13928245 -11.10546875 22.4453125 C-10.53332138 20.8597052 -10.53332138 20.8597052 -9.94961548 19.24206543 C-8.86591089 16.24206215 -7.77774023 13.24372728 -6.6875 10.24609375 C-6.19455444 8.88303856 -6.19455444 8.88303856 -5.69165039 7.4924469 C-5.3896875 6.66647507 -5.08772461 5.84050323 -4.77661133 4.98950195 C-4.51302322 4.26535599 -4.24943512 3.54121002 -3.9778595 2.79512024 C-2.95069459 0.30207419 -2.78007789 0.16102666 0 0 Z " fill="#FBFCFD" transform="translate(357.29296875,741.8671875)"/>
<path d="M0 0 C-0.66 8.58 -1.32 17.16 -2 26 C-4.97 26 -7.94 26 -11 26 C-11.29132813 25.04738281 -11.58265625 24.09476563 -11.8828125 23.11328125 C-14.80688567 13.5252612 -14.80688567 13.5252612 -22 7 C-27.67530765 5.25107866 -33.14532244 5.38177415 -38.75 7.25 C-47.11599857 11.75476846 -51.1174997 18.26657763 -54.06445312 27.24194336 C-55.46388171 32.86339539 -55.33398704 38.41539515 -55.31567383 44.16845703 C-55.31252845 46.23133974 -55.33596902 48.29276415 -55.36132812 50.35546875 C-55.4191207 62.32330384 -53.72120621 75.71622587 -45.2265625 84.921875 C-41.239901 88.45435987 -38.20068077 90.13617504 -32.76953125 90.09765625 C-31.56586914 90.09282227 -31.56586914 90.09282227 -30.33789062 90.08789062 C-29.50451172 90.07951172 -28.67113281 90.07113281 -27.8125 90.0625 C-26.96751953 90.05798828 -26.12253906 90.05347656 -25.25195312 90.04882812 C-23.16793845 90.03705403 -21.08396023 90.0191189 -19 90 C-19.13899687 86.08305929 -19.28738133 82.16652898 -19.4375 78.25 C-19.47681641 77.13882813 -19.51613281 76.02765625 -19.55664062 74.8828125 C-19.61948242 73.27792969 -19.61948242 73.27792969 -19.68359375 71.640625 C-19.73858032 70.16384277 -19.73858032 70.16384277 -19.79467773 68.65722656 C-19.97827453 66.28116528 -20.18580007 64.23841172 -21 62 C-23.31315325 60.85706445 -23.31315325 60.85706445 -26.0625 60.25 C-27.44115234 59.88648438 -27.44115234 59.88648438 -28.84765625 59.515625 C-29.55792969 59.34546875 -30.26820313 59.1753125 -31 59 C-30.67 56.36 -30.34 53.72 -30 51 C-16.47 51 -2.94 51 11 51 C11.495 54.465 11.495 54.465 12 58 C9.09399739 59.25664978 7.20395416 60 4 60 C3.67 71.88 3.34 83.76 3 96 C-14.20579399 103.64701955 -33.79966461 106.51768767 -52 100 C-64.57300224 94.66146334 -71.92822815 86.50074228 -77.2265625 74.04663086 C-80.31392698 65.87700446 -81.50252582 58.27310015 -81.375 49.5625 C-81.36484863 48.55405029 -81.35469727 47.54560059 -81.34423828 46.5065918 C-80.99078937 29.547894 -75.3409873 15.83861083 -63 4 C-45.46957222 -12.26366028 -20.00034346 -8.00013738 0 0 Z " fill="#FCFDFD" transform="translate(295,747)"/>
<path d="M0 0 C1.5207267 -0.02753831 3.04160674 -0.04663375 4.5625 -0.0625 C5.40941406 -0.07410156 6.25632812 -0.08570313 7.12890625 -0.09765625 C10.47114144 0.01602522 13.6985313 0.48172247 17 1 C17.20107864 1.582621 17.40215729 2.165242 17.60932922 2.76551819 C31.06534163 41.97362677 31.06534163 41.97362677 44.94824219 81.03173828 C45.66840594 83.06417815 46.34963532 85.11071709 46.99707031 87.16748047 C47.32030273 88.16279785 47.64353516 89.15811523 47.9765625 90.18359375 C48.24807129 91.0645874 48.51958008 91.94558105 48.79931641 92.85327148 C50.40074727 95.71650482 51.90731811 96.10465645 55 97 C56.65919896 97.36871088 58.3247643 97.71281674 60 98 C60 100.64 60 103.28 60 106 C44.82 106 29.64 106 14 106 C14 104.02 14 102.04 14 100 C17.3 98.68 20.6 97.36 24 96 C23.42431574 88.5161046 21.53002929 83.59008786 19 76 C7.78 75.67 -3.44 75.34 -15 75 C-15.99 79.95 -15.99 79.95 -17 85 C-17.94922906 89.01462935 -18.977509 93.00298975 -20 97 C-16.37 97.66 -12.74 98.32 -9 99 C-9 101.31 -9 103.62 -9 106 C-19.89 106 -30.78 106 -42 106 C-42 103.69 -42 101.38 -42 99 C-40.205625 98.505 -40.205625 98.505 -38.375 98 C-33.89789424 95.70590957 -32.90288321 93.05513937 -31.2734375 88.39453125 C-31.02720642 87.70245071 -30.78097534 87.01037018 -30.52728271 86.2973175 C-29.66921039 83.87007755 -28.83453269 81.43542868 -28 79 C-27.33262798 77.08355697 -26.66445736 75.1673919 -25.99560547 73.25146484 C-24.12428788 67.8738322 -22.27166111 62.48992267 -20.42327881 57.10437012 C-13.85553319 37.97751502 -7.22472112 18.89027469 0 0 Z " fill="#FBFDFD" transform="translate(803,742)"/>
<path d="M0 0 C5.61929063 -0.04991171 11.23844859 -0.08595882 16.85791016 -0.10986328 C18.76450858 -0.1198421 20.67109202 -0.13342996 22.57763672 -0.15087891 C54.97171111 -0.43965671 54.97171111 -0.43965671 64.91796875 8.77734375 C69.98089399 14.46561843 70.36135144 19.18612291 70.26953125 26.70703125 C69.71514425 33.4801942 67.0091563 37.31468964 62.0625 41.8125 C59.18904567 44.16497289 56.2890074 46.25271482 53 48 C53.31710937 48.44085937 53.63421875 48.88171875 53.9609375 49.3359375 C58.22190414 55.48020432 61.79795173 61.93448128 65.30810547 68.52685547 C69.76264207 76.99214722 69.76264207 76.99214722 77.3125 82.375 C78.199375 82.58125 79.08625 82.7875 80 83 C79.67 85.31 79.34 87.62 79 90 C71.08 90 63.16 90 55 90 C53.2984375 86.6278125 53.2984375 86.6278125 51.5625 83.1875 C51.17674805 82.4236499 50.79099609 81.6597998 50.39355469 80.87280273 C48.4011476 76.89598453 46.47940381 72.89800112 44.640625 68.84765625 C44.25189209 67.99856689 43.86315918 67.14947754 43.46264648 66.2746582 C42.70909383 64.62055335 41.96599661 62.96163611 41.23461914 61.29760742 C39.1568617 56.75835178 37.39853365 53.68760796 33 51 C31.68 50.67 30.36 50.34 29 50 C29.33 59.9 29.66 69.8 30 80 C32.97 81.32 35.94 82.64 39 84 C39.042721 85.66611905 39.04063832 87.33382885 39 89 C37.18896014 90.81103986 34.70694539 90.12859937 32.29676819 90.13894653 C31.49887375 90.1369223 30.70097931 90.13489807 29.87890625 90.1328125 C28.6562632 90.13424759 28.6562632 90.13424759 27.40892029 90.13571167 C25.68138553 90.13639353 23.95384823 90.13453884 22.22631836 90.13037109 C19.57725272 90.12502975 16.92835716 90.13031232 14.27929688 90.13671875 C12.60416629 90.13605783 10.92903581 90.13477639 9.25390625 90.1328125 C8.06010094 90.13584885 8.06010094 90.13584885 6.84217834 90.13894653 C1.22991088 90.11495544 1.22991088 90.11495544 -1 89 C-1 87.35 -1 85.7 -1 84 C2.32514673 82.86642725 5.5879008 81.8530248 9 81 C9 57.57 9 34.14 9 10 C5.7 9.01 2.4 8.02 -1 7 C-0.67 4.69 -0.34 2.38 0 0 Z " fill="#FBFCFD" transform="translate(841,880)"/>
<path d="M0 0 C10.23 0.33 20.46 0.66 31 1 C31 2.98 31 4.96 31 7 C28.03 7.99 25.06 8.98 22 10 C21.67 36.4 21.34 62.8 21 90 C9 90 9 90 6.1328125 87.4921875 C5.41971069 86.31185192 4.75279401 85.10283588 4.125 83.875 C3.31075068 82.48777913 2.49559109 81.1010923 1.6796875 79.71484375 C1.25397461 78.95671387 0.82826172 78.19858398 0.38964844 77.41748047 C-1.61420681 73.93150459 -3.79712363 70.56929128 -5.9753418 67.19042969 C-7.77246657 64.40264885 -9.55065612 61.60360275 -11.32421875 58.80078125 C-15.63459966 51.99497745 -19.96460077 45.20170904 -24.29394531 38.40795898 C-27.23627476 33.78647857 -30.15925504 29.15502216 -33.03491211 24.49169922 C-33.91865074 23.01148633 -33.91865074 23.01148633 -35 22 C-34.93879811 29.24992901 -34.86169936 36.4995049 -34.76428509 43.74904346 C-34.71955159 47.11530477 -34.68030261 50.48144423 -34.65356445 53.84790039 C-34.6201102 57.71791721 -34.56779748 61.58728447 -34.51171875 65.45703125 C-34.50532883 66.66647903 -34.4989389 67.87592682 -34.49235535 69.12202454 C-34.46266411 70.80342781 -34.46266411 70.80342781 -34.43237305 72.51879883 C-34.42126999 73.50697098 -34.41016693 74.49514313 -34.39872742 75.51325989 C-33.93704253 78.39264638 -33.28077845 79.25131913 -31 81 C-29.19809386 81.97715609 -29.19809386 81.97715609 -27.3125 82.6875 C-26.219375 83.120625 -25.12625 83.55375 -24 84 C-24.33 85.98 -24.66 87.96 -25 90 C-29.25414623 90.02465622 -33.50825498 90.04283899 -37.76245117 90.05493164 C-39.21070073 90.05997101 -40.65894517 90.06680253 -42.10717773 90.07543945 C-44.18474588 90.08752247 -46.26224697 90.09323211 -48.33984375 90.09765625 C-49.59144287 90.10289307 -50.84304199 90.10812988 -52.13256836 90.11352539 C-55 90 -55 90 -56 89 C-56 87.35 -56 85.7 -56 84 C-52.7 82.68 -49.4 81.36 -46 80 C-46 56.9 -46 33.8 -46 10 C-48.97 9.01 -51.94 8.02 -55 7 C-55 5.02 -55 3.04 -55 1 C-30.76140885 -2.31055402 -30.76140885 -2.31055402 -23.4296875 2.78710938 C-19.02541135 7.6243902 -16.1795816 13.33870485 -13.37939453 19.20849609 C-11.77088048 22.46367302 -9.89786575 25.4314879 -7.86889648 28.43676758 C-5.52429749 31.9214853 -3.27391126 35.46874957 -1 39 C2.63 44.61 6.26 50.22 10 56 C9.67 40.82 9.34 25.64 9 10 C6.03 9.01 3.06 8.02 0 7 C0 4.69 0 2.38 0 0 Z " fill="#F9FBFC" transform="translate(712,880)"/>
<path d="M0 0 C0.85049423 0.00222061 1.70098846 0.00444122 2.57725525 0.00672913 C4.01863609 0.00684242 4.01863609 0.00684242 5.48913574 0.00695801 C7.05630592 0.01469994 7.05630592 0.01469994 8.65513611 0.02259827 C9.71913132 0.02401321 10.78312653 0.02542816 11.87936401 0.02688599 C15.29293069 0.03250388 18.70643286 0.04505941 22.11997986 0.05775452 C24.42792162 0.06276721 26.73586441 0.06733052 29.04380798 0.07142639 C34.71505412 0.08247912 40.38626238 0.09923465 46.05747986 0.12025452 C46.05747986 2.76025452 46.05747986 5.40025452 46.05747986 8.12025452 C42.09747986 9.11025452 38.13747986 10.10025452 34.05747986 11.12025452 C34.05747986 37.85025452 34.05747986 64.58025452 34.05747986 92.12025452 C41.97747986 92.12025452 49.89747986 92.12025452 58.05747986 92.12025452 C60.9253641 85.47883837 63.5602417 79.19810763 65.05747986 72.12025452 C68.68747986 72.12025452 72.31747986 72.12025452 76.05747986 72.12025452 C76.05747986 83.14043802 75.05520039 94.14532863 74.05747986 105.12025452 C48.97747986 105.12025452 23.89747986 105.12025452 -1.94252014 105.12025452 C-2.27252014 102.81025452 -2.60252014 100.50025452 -2.94252014 98.12025452 C1.05812281 96.94359482 4.9614751 95.93945547 9.05747986 95.12025452 C9.38747986 67.07025452 9.71747986 39.02025452 10.05747986 10.12025452 C4.11747986 9.13025452 4.11747986 9.13025452 -1.94252014 8.12025452 C-2.94252014 7.12025452 -2.94252014 7.12025452 -3.06752014 4.12025452 C-2.90333183 0.17973495 -2.90333183 0.17973495 0 0 Z " fill="#FCFDFD" transform="translate(870.9425201416016,742.8797454833984)"/>
<path d="M0 0 C4.62 0 9.24 0 14 0 C21.910113 21.72946725 29.66512652 43.5067058 37.23657227 65.35668945 C37.70314995 66.70116402 37.70314995 66.70116402 38.17915344 68.07279968 C38.76463696 69.76044113 39.34891687 71.44850077 39.93180847 73.13703918 C41.29572294 77.13805461 41.29572294 77.13805461 43 81 C45.11327425 81.90725434 45.11327425 81.90725434 47.5625 82.625 C48.38878906 82.88539063 49.21507812 83.14578125 50.06640625 83.4140625 C50.70449219 83.60742188 51.34257813 83.80078125 52 84 C51.67 85.98 51.34 87.96 51 90 C38.46 90 25.92 90 13 90 C13 88.02 13 86.04 13 84 C15.64 83.01 18.28 82.02 21 81 C20.73844293 79.4983547 20.46513114 77.9987567 20.1875 76.5 C20.03667969 75.6646875 19.88585937 74.829375 19.73046875 73.96875 C18.80775406 70.2186796 17.35601084 66.6160289 16 63 C7.09 63 -1.82 63 -11 63 C-14.65979441 71.80705586 -14.65979441 71.80705586 -16 81 C-12.7 81.99 -9.4 82.98 -6 84 C-6.33 85.98 -6.66 87.96 -7 90 C-16.57 90 -26.14 90 -36 90 C-36 88.02 -36 86.04 -36 84 C-34.36998047 83.50113281 -34.36998047 83.50113281 -32.70703125 82.9921875 C-29.35966343 81.53681019 -29.01322493 81.02434273 -27.13671875 77.5703125 C-26.62679138 76.09756734 -26.14585148 74.61460336 -25.6875 73.125 C-25.40737061 72.29693848 -25.12724121 71.46887695 -24.83862305 70.61572266 C-24.21329293 68.76240745 -23.59942297 66.90519861 -22.99511719 65.04492188 C-21.17133008 59.46438388 -19.22955958 53.9240257 -17.3125 48.375 C-16.90104736 47.17351318 -16.48959473 45.97202637 -16.06567383 44.73413086 C-10.92170096 29.74671701 -5.45554231 14.87619526 0 0 Z " fill="#FBFCFD" transform="translate(781,880)"/>
<path d="M0 0 C0.89827139 -0.00694553 1.79654278 -0.01389106 2.72203451 -0.02104706 C5.73848903 -0.03937488 8.75416221 -0.02903661 11.77064514 -0.01878357 C13.93058869 -0.02583912 16.09052729 -0.03458259 18.25045776 -0.04489136 C24.12235086 -0.06743603 29.99397507 -0.06443367 35.86589503 -0.05556989 C40.76422514 -0.05046786 45.66250436 -0.05774619 50.56082922 -0.06504196 C62.11453686 -0.08205717 73.66811247 -0.0784588 85.22181702 -0.06175232 C97.14958207 -0.04482821 109.07698124 -0.06066611 121.00470632 -0.0929752 C131.23835365 -0.11964747 141.47188691 -0.1269535 151.70556551 -0.11846012 C157.82082109 -0.11352417 163.93585646 -0.11578278 170.05108452 -0.13624763 C175.80087312 -0.1545675 181.55013429 -0.14869086 187.29989433 -0.12404823 C189.41185745 -0.11902868 191.5238605 -0.12255959 193.63579178 -0.13519669 C196.51586206 -0.15106855 199.39418304 -0.13623158 202.27416992 -0.11352539 C203.11288586 -0.12536112 203.9516018 -0.13719685 204.81573337 -0.14939123 C209.09973565 -0.08062204 210.74172022 0.16293984 214.25847721 2.85861301 C216.20057678 5.5146637 216.20057678 5.5146637 216.20057678 8.6396637 C215.18268166 11.56611217 214.56430607 12.61988628 212.20057678 14.5146637 C209.20899645 14.81189505 206.425098 14.92343215 203.43202209 14.90234375 C202.52502689 14.90772929 201.61803169 14.91311483 200.68355179 14.91866356 C197.63179875 14.93301836 194.58047489 14.92582092 191.52870178 14.91871643 C189.34595896 14.92441603 187.16321911 14.93137868 184.98048401 14.93951416 C179.04259033 14.95750502 173.10484394 14.95626617 167.16693115 14.95057178 C162.21627861 14.9474888 157.26565473 14.95356235 152.31500626 14.95961052 C139.97200563 14.97447808 127.62907735 14.97082579 115.28607798 14.95874722 C104.56026166 14.94881192 93.83461778 14.96175899 83.10882807 14.98568141 C72.10124839 15.01004779 61.09375304 15.01928627 50.08614731 15.01302868 C43.90389944 15.0096498 37.7217941 15.01213592 31.53956604 15.02927971 C25.72830944 15.04469053 19.9173834 15.04085861 14.10614014 15.02197456 C11.96914739 15.01827254 9.83213047 15.02144371 7.69515991 15.03186035 C4.78609675 15.0449617 1.87814562 15.03361966 -1.03086853 15.01586914 C-2.31037699 15.03027665 -2.31037699 15.03027665 -3.6157341 15.04497522 C-9.29683967 14.97325747 -9.29683967 14.97325747 -11.82011414 12.67083836 C-13.16813779 9.70285358 -13.26954312 7.73834302 -12.79942322 4.5146637 C-9.47068326 -0.34159927 -5.41835641 -0.05309661 0 0 Z " fill="#FEFEFE" transform="translate(438.79942321777344,624.4853363037109)"/>
<path d="M0 0 C0.495 3.465 0.495 3.465 1 7 C-5.435 8.98 -5.435 8.98 -12 11 C-12 38.39 -12 65.78 -12 94 C-8.0672135 95.5731146 -5.10416164 96.42732628 -1 97 C-1 99.64 -1 102.28 -1 105 C-16.51 105 -32.02 105 -48 105 C-48.33 102.69 -48.66 100.38 -49 98 C-44.71 97.01 -40.42 96.02 -36 95 C-36.33 66.95 -36.66 38.9 -37 10 C-40.3 9.67 -43.6 9.34 -47 9 C-47.66 8.67 -48.32 8.34 -49 8 C-49.125 2.25 -49.125 2.25 -48 0 C-32.87736162 -3.15551116 -15.30572606 -1.3166216 0 0 Z " fill="#FDFEFE" transform="translate(1006,743)"/>
<path d="M0 0 C23.76 0 47.52 0 72 0 C72 8.91 72 17.82 72 27 C69.03 27 66.06 27 63 27 C61.77004288 21.67018581 60.69255295 16.42499815 60 11 C55.38 11 50.76 11 46 11 C46.10842027 18.94570652 46.22062124 26.89133276 46.33933926 34.83689117 C46.39432615 38.52697473 46.44770506 42.21706648 46.49731445 45.90722656 C46.5453184 49.47344779 46.59766991 53.0395819 46.65294075 56.60569763 C46.68301208 58.61733854 46.70866844 60.6290439 46.73423767 62.64074707 C46.83389347 68.83978582 47.05147301 74.87001776 48 81 C50.97 81.66 53.94 82.32 57 83 C57 85.31 57 87.62 57 90 C51.32169922 90.02464705 45.64342931 90.04283462 39.96508789 90.05493164 C38.03181415 90.05997256 36.09854424 90.06680519 34.1652832 90.07543945 C31.39273128 90.08751565 28.62022959 90.09323057 25.84765625 90.09765625 C24.54297142 90.10539818 24.54297142 90.10539818 23.21192932 90.11329651 C21.14094186 90.11349185 19.07005676 90.06208168 17 90 C16 89 16 89 15.9375 86.4375 C15.958125 85.633125 15.97875 84.82875 16 84 C19.32542534 82.57481771 22.44920141 81.66241789 26 81 C26.9266661 72.72633154 27.13309133 64.55868092 27.09765625 56.23828125 C27.0962413 54.96647507 27.09482635 53.69466888 27.09336853 52.38432312 C27.08875504 49.04221611 27.07980852 45.70018063 27.06866455 42.35809326 C27.05834004 38.93209442 27.05384753 35.50608812 27.04882812 32.08007812 C27.03785922 25.38669688 27.02062619 18.69335817 27 12 C22.38 12 17.76 12 13 12 C11.68 16.95 10.36 21.9 9 27 C6.03 27 3.06 27 0 27 C0 18.09 0 9.18 0 0 Z " fill="#FAFCFD" transform="translate(435,880)"/>
<path d="M0 0 C1.51830386 0.04233866 3.0364555 0.09036263 4.55444336 0.14282227 C5.75090736 0.17823875 5.75090736 0.17823875 6.97154236 0.21437073 C9.52929684 0.29119112 12.08676238 0.37513567 14.64428711 0.45922852 C16.37409049 0.51243084 18.10390814 0.56517135 19.83374023 0.61743164 C24.08327355 0.74683094 28.33256093 0.88262164 32.58178711 1.02172852 C32.58178711 3.00172852 32.58178711 4.98172852 32.58178711 7.02172852 C30.27178711 7.68172852 27.96178711 8.34172852 25.58178711 9.02172852 C25.82823975 9.58980225 26.07469238 10.15787598 26.32861328 10.74316406 C30.95624282 21.4272105 35.54805686 32.09619784 39.58178711 43.02172852 C41.92499967 40.67851595 42.78310989 38.60354052 44.11303711 35.56860352 C44.59385742 34.47418945 45.07467773 33.37977539 45.57006836 32.25219727 C46.06893555 31.10364258 46.56780273 29.95508789 47.08178711 28.77172852 C47.5806543 27.63864258 48.07952148 26.50555664 48.59350586 25.33813477 C50.80594722 20.27858389 52.89473769 15.28446157 54.58178711 10.02172852 C53.94370117 9.9121582 53.30561523 9.80258789 52.64819336 9.68969727 C51.40875977 9.45186523 51.40875977 9.45186523 50.14428711 9.20922852 C48.9087207 8.98299805 48.9087207 8.98299805 47.64819336 8.75219727 C46.62532227 8.39061523 46.62532227 8.39061523 45.58178711 8.02172852 C44.58178711 5.02172852 44.58178711 5.02172852 46.58178711 0.02172852 C59.45178711 0.51672852 59.45178711 0.51672852 72.58178711 1.02172852 C73.07678711 3.49672852 73.07678711 3.49672852 73.58178711 6.02172852 C68.83178711 9.02172852 68.83178711 9.02172852 66.58178711 9.02172852 C66.3160791 9.87532959 66.05037109 10.72893066 65.77661133 11.60839844 C64.55499925 15.09825509 63.0881469 18.3140312 61.46459961 21.63500977 C61.16617157 22.24886032 60.86774353 22.86271088 60.56027222 23.49516296 C59.61258368 25.44323406 58.66000632 27.38885852 57.70678711 29.33422852 C57.07490145 30.62766506 56.44338794 31.92128347 55.81225586 33.21508789 C55.50489502 33.84494095 55.19753418 34.47479401 54.88085938 35.12373352 C53.97757384 36.98330011 53.08403457 38.84733021 52.19116211 40.71191406 C51.25144452 42.64452196 50.28463576 44.56517682 49.25366211 46.45068359 C45.76772335 53.12820325 46.12729617 59.68716188 46.33178711 67.08422852 C46.34983398 68.33139648 46.36788086 69.57856445 46.38647461 70.86352539 C46.4332723 73.91707443 46.49882343 76.96898412 46.58178711 80.02172852 C49.88178711 81.34172852 53.18178711 82.66172852 56.58178711 84.02172852 C56.25178711 86.00172852 55.92178711 87.98172852 55.58178711 90.02172852 C42.38178711 90.02172852 29.18178711 90.02172852 15.58178711 90.02172852 C15.25178711 88.04172852 14.92178711 86.06172852 14.58178711 84.02172852 C15.67491211 83.71235352 16.76803711 83.40297852 17.89428711 83.08422852 C20.13586705 82.43834955 22.36872221 81.75941682 24.58178711 81.02172852 C26.13090826 62.40627543 24.00651512 49.07393558 15.02270508 32.67797852 C13.67673714 30.19676348 12.42599738 27.69398052 11.21069336 25.14672852 C6.77099112 14.58502413 6.77099112 14.58502413 -1.66821289 7.70922852 C-2.57571289 7.48235352 -3.48321289 7.25547852 -4.41821289 7.02172852 C-4.46075645 5.02218106 -4.45902072 3.02131215 -4.41821289 1.02172852 C-3.41821289 0.02172852 -3.41821289 0.02172852 0 0 Z " fill="#F9FCFD" transform="translate(924.418212890625,879.978271484375)"/>
<path d="M0 0 C-0.33 7.92 -0.66 15.84 -1 24 C-3.64 24 -6.28 24 -9 24 C-9.24234375 23.11957031 -9.4846875 22.23914063 -9.734375 21.33203125 C-10.06953125 20.17058594 -10.4046875 19.00914062 -10.75 17.8125 C-11.07484375 16.66394531 -11.3996875 15.51539063 -11.734375 14.33203125 C-13.45211987 9.80969676 -15.33358699 6.79533348 -19.75 4.6875 C-26.30276787 3.30133756 -31.25134862 3.32344932 -37.11328125 6.6171875 C-42.56307097 10.61144332 -45.86299617 16.37356293 -47.52734375 22.8515625 C-49.70726059 37.3723309 -48.97954994 54.75515918 -40 67 C-33.57892709 72.93949244 -28.28339135 73.53607928 -19.7109375 73.31640625 C-12.27506748 72.68240049 -7.84229526 69.44758217 -3 64 C0.16115776 65.36983503 0.9927092 65.9890638 3 69 C-3.97316165 77.8341662 -11.71029259 83.99109618 -23 86 C-33.29794906 87.14578829 -43.87496559 85.27097683 -52.4375 79.1875 C-63.95849474 69.50986442 -67.91020221 58.14673608 -69.359375 43.32421875 C-69.82591649 31.05158574 -67.21112175 18.3028794 -58.87109375 8.88671875 C-58.25363281 8.26410156 -57.63617188 7.64148438 -57 7 C-56.39285156 6.36707031 -55.78570312 5.73414063 -55.16015625 5.08203125 C-39.90971871 -9.54466652 -17.82873931 -8.91436966 0 0 Z " fill="#FBFCFD" transform="translate(424,885)"/>
<path d="M0 0 C4.86160697 2.00837727 7.85653911 5.25919571 10.375 9.8125 C13.89665606 18.34513286 14.33907246 26.65563052 14.3125 35.8125 C14.32861328 36.91142578 14.34472656 38.01035156 14.36132812 39.14257812 C14.36745625 49.54200262 13.17055719 60.89415274 6 69 C1.88427597 72.62183715 -2.30525313 73.66541679 -7.73046875 73.37890625 C-13.1550891 72.47324674 -17.38389686 70.20425112 -20.8125 65.875 C-29.06088233 52.96086605 -29.10849303 32.39561662 -26.3515625 17.81640625 C-24.45566665 10.9377072 -21.38893713 5.72527492 -16 1 C-11.2824914 -1.3587543 -5.10366584 -0.57640086 0 0 Z " fill="#004084" transform="translate(613,889)"/>
<path d="M0 0 C4.83396289 4.49438698 6.45146798 8.83070391 7.5625 15.25 C7 18 7 18 4.5625 19.75 C3.74845703 20.21212891 3.74845703 20.21212891 2.91796875 20.68359375 C-3.96269562 25.40616787 -10.28353632 33.42149303 -12.75 41.4375 C-12.8325 41.953125 -12.915 42.46875 -13 43 C-12.01 43.020625 -11.02 43.04125 -10 43.0625 C-4.74508616 43.83151178 -1.37558026 47.08584402 2 51 C5.19351544 56.0021407 5.39847499 60.89321835 4.57421875 66.671875 C3.19386205 72.26842325 -0.31590387 75.87726925 -5 79 C-10.26076985 81.33811993 -15.53989362 82.02762558 -21.078125 80.3828125 C-27.45839016 77.63101875 -31.04775714 73.02235699 -34.03515625 66.8671875 C-38.82812233 54.42776855 -34.94659599 42.73041954 -30 31 C-23.62507966 17.79596652 -11.97991153 8.01805103 0 0 Z " fill="#FCFDFE" transform="translate(533,362)"/>
<path d="M0 0 C3.21252727 5.59601524 6.19144743 11.37959872 5 18 C3.3194107 19.88021731 1.54344369 20.98809645 -0.59765625 22.31640625 C-7.67181997 27.27407221 -12.67054937 34.76927443 -15 43 C-14.01 42.855625 -13.02 42.71125 -12 42.5625 C-7.41434953 42.57182043 -4.92843172 44.86267636 -1.734375 47.9453125 C2.42130253 52.86848003 3.61413933 58.40196759 3.33984375 64.765625 C2.60133092 69.62113467 0.91658731 73.44590606 -2.94140625 76.57421875 C-8.44390835 80.1108177 -13.3675831 81.83053521 -20 81 C-26.94366582 78.84551677 -31.67324712 74.40766017 -35.03515625 68.0390625 C-39.91920784 55.81757527 -36.84520453 43.50284199 -31.88525391 31.92871094 C-26.59954749 20.41269309 -18.35320565 12.74591505 -8.625 5 C-8.0055249 4.50628906 -7.3860498 4.01257813 -6.74780273 3.50390625 C-2.24694582 0 -2.24694582 0 0 0 Z " fill="#FCFDFD" transform="translate(487,362)"/>
<path d="M0 0 C1.6874269 0.00015917 3.37485866 0.00585622 5.06225586 0.01586914 C6.39189613 0.01799156 6.39189613 0.01799156 7.74839783 0.02015686 C10.59133215 0.02577324 13.43418892 0.03832848 16.27709961 0.05102539 C18.19962452 0.05603828 20.12215065 0.06060155 22.04467773 0.06469727 C26.7680151 0.07574798 31.49129419 0.09302356 36.21459961 0.11352539 C36.70959961 3.08352539 36.70959961 3.08352539 37.21459961 6.11352539 C33.91459961 7.43352539 30.61459961 8.75352539 27.21459961 10.11352539 C27.21459961 33.21352539 27.21459961 56.31352539 27.21459961 80.11352539 C30.51459961 81.43352539 33.81459961 82.75352539 37.21459961 84.11352539 C36.88459961 86.09352539 36.55459961 88.07352539 36.21459961 90.11352539 C23.01459961 90.11352539 9.81459961 90.11352539 -3.78540039 90.11352539 C-3.78540039 87.80352539 -3.78540039 85.49352539 -3.78540039 83.11352539 C-3.14731445 82.98075195 -2.50922852 82.84797852 -1.85180664 82.71118164 C-0.61237305 82.4462793 -0.61237305 82.4462793 0.65209961 82.17602539 C1.88766602 81.91499023 1.88766602 81.91499023 3.14819336 81.64868164 C5.19121165 81.30599545 5.19121165 81.30599545 6.21459961 80.11352539 C6.30892946 77.90484708 6.33202392 75.69311018 6.328125 73.48242188 C6.32827103 72.78977234 6.32841705 72.0971228 6.3285675 71.38348389 C6.32786835 69.08383093 6.32007589 66.78425802 6.31225586 64.48461914 C6.31039169 62.89421127 6.30896778 61.30380282 6.30796814 59.71339417 C6.3041429 55.51956609 6.29431256 51.32577244 6.28326416 47.13195801 C6.27305018 42.85563625 6.26847055 38.57930895 6.26342773 34.30297852 C6.25269029 25.90647831 6.2356138 17.51000613 6.21459961 9.11352539 C2.58459961 8.45352539 -1.04540039 7.79352539 -4.78540039 7.11352539 C-4.82794395 5.11397793 -4.82620822 3.11310903 -4.78540039 1.11352539 C-3.78540039 0.11352539 -3.78540039 0.11352539 0 0 Z " fill="#FCFDFE" transform="translate(311.785400390625,879.886474609375)"/>
<path d="M0 0 C17.04320113 0 17.04320113 0 21.35546875 3.31640625 C30.20013864 12.37116331 31.85290459 22.95944059 32.25 35.125 C32.10931451 46.23915351 30.32403237 57.20297906 22.58984375 65.515625 C19.04234908 68.80770005 15.72799585 70.22491871 11 71 C7.37 70.67 3.74 70.34 0 70 C0 46.9 0 23.8 0 0 Z " fill="#003D82" transform="translate(246,890)"/>
<path d="M0 0 C1.64510941 0.00015915 3.29022379 0.00585551 4.93530273 0.01586914 C6.23164894 0.01799156 6.23164894 0.01799156 7.55418396 0.02015686 C10.32578941 0.025773 13.09731528 0.0383282 15.86889648 0.05102539 C17.74324428 0.05603831 19.61759334 0.06060158 21.49194336 0.06469727 C26.09679192 0.07574767 30.70158069 0.09302309 35.30639648 0.11352539 C35.30639648 2.42352539 35.30639648 4.73352539 35.30639648 7.11352539 C32.33639648 8.10352539 29.36639648 9.09352539 26.30639648 10.11352539 C26.30639648 33.21352539 26.30639648 56.31352539 26.30639648 80.11352539 C29.27639648 81.10352539 32.24639648 82.09352539 35.30639648 83.11352539 C35.30639648 85.42352539 35.30639648 87.73352539 35.30639648 90.11352539 C29.77051115 90.13817314 24.23465748 90.15636035 18.69873047 90.16845703 C16.81395919 90.17349783 14.92919184 90.18033037 13.04443359 90.18896484 C10.34138013 90.20104156 7.63837818 90.20675608 4.93530273 90.21118164 C4.08738663 90.21634293 3.23947052 90.22150421 2.36585999 90.2268219 C0.3456858 90.22701734 -1.67438286 90.1755875 -3.69360352 90.11352539 C-4.02360352 89.78352539 -4.35360352 89.45352539 -4.69360352 89.11352539 C-4.69360352 87.46352539 -4.69360352 85.81352539 -4.69360352 84.11352539 C-1.39360352 83.12352539 1.90639648 82.13352539 5.30639648 81.11352539 C6.61859079 74.10032133 6.46832417 67.08779576 6.47436523 59.97290039 C6.47758264 58.60003627 6.48094707 57.2271725 6.48445129 55.85430908 C6.49041278 52.98986006 6.49229399 50.12544111 6.49169922 47.26098633 C6.4915971 43.59011959 6.50531319 39.91944413 6.52247143 36.24862289 C6.53357738 33.41936351 6.53561896 30.59015084 6.53508949 27.76087189 C6.53684207 25.74948191 6.54768 23.73810649 6.55863953 21.72674561 C6.5555629 20.50827942 6.55248627 19.28981323 6.54931641 18.03442383 C6.55074142 16.96077576 6.55216644 15.88712769 6.55363464 14.78094482 C6.49859561 11.88665503 6.49859561 11.88665503 4.30639648 9.11352539 C2.1213452 8.31914616 2.1213452 8.31914616 -0.31860352 7.92602539 C-1.54450195 7.68819336 -1.54450195 7.68819336 -2.79516602 7.44555664 C-3.42165039 7.33598633 -4.04813477 7.22641602 -4.69360352 7.11352539 C-4.73614708 5.11397793 -4.73441134 3.11310903 -4.69360352 1.11352539 C-3.69360352 0.11352539 -3.69360352 0.11352539 0 0 Z " fill="#FDFDFE" transform="translate(521.693603515625,879.886474609375)"/>
<path d="M0 0 C1.96875 1.265625 1.96875 1.265625 2.8203125 3.21484375 C3.01550841 5.91162937 2.29488509 7.70250909 0.72265625 9.8828125 C-3.31373607 13.06517972 -9.10270032 13.32408603 -14.03125 14.265625 C-25.50904206 17.17094112 -33.59025013 23.14823727 -41.30175781 31.94677734 C-44.26631392 35.16381451 -45.33729275 36.18498165 -49.86328125 36.7109375 C-53.03125 36.265625 -53.03125 36.265625 -54.03125 35.265625 C-55.16007697 28.00888021 -51.79657327 22.31271805 -48.03125 16.265625 C-41.00895642 7.23914742 -30.97336177 1.2291136 -20.03125 -1.734375 C-12.90814988 -4.10874171 -6.84213041 -2.66082849 0 0 Z " fill="#FCFDFD" transform="translate(587.03125,286.734375)"/>
<path d="M0 0 C6.99110962 5.96715922 13.57754032 13.00486913 14.58984375 22.51171875 C14.62811183 24.71039378 14.61696174 26.80179891 14.3203125 28.98046875 C13.3203125 29.98046875 13.3203125 29.98046875 10.48828125 30.32421875 C7.3203125 29.98046875 7.3203125 29.98046875 5.37109375 28.07421875 C4.51064453 26.7903125 4.51064453 26.7903125 3.6328125 25.48046875 C-4.53601883 14.56295693 -15.738313 8.74151223 -29.09765625 6.375 C-31.11193325 6.08794713 -33.13171945 5.83526555 -35.15625 5.6328125 C-38.34125995 4.80944305 -39.65133523 3.53134737 -41.6796875 0.98046875 C-41.76626072 -2.48245988 -40.98771655 -3.69283378 -38.6171875 -6.20703125 C-26.26594416 -13.82801118 -10.75197256 -8.10719474 0 0 Z " fill="#FAFCFD" transform="translate(514.6796875,294.01953125)"/>
<path d="M0 0 C16.34482759 0 16.34482759 0 21 3 C25.52573346 8.73259572 25.75358068 15.95611392 25 23 C23.31731112 28.78881554 20.70778287 33.1372038 16 37 C13 38 13 38 0 38 C0 25.46 0 12.92 0 0 Z " fill="#013A7E" transform="translate(456,754)"/>
<path d="M0 0 C1.07411068 2.099838 2.08357174 4.19629642 3.0078125 6.3671875 C6.65542367 14.5551818 11.56651777 18.87912956 19.82462037 22.35207808 C24.23651114 23.66612952 28.79176098 23.39849771 33.35777283 23.36076355 C34.4948978 23.36332682 35.63202278 23.3658901 36.80360609 23.36853105 C40.61001947 23.37346842 44.41603533 23.35697614 48.22241211 23.34057617 C50.95247651 23.33805856 53.68253317 23.34007299 56.41259766 23.34190369 C62.28823389 23.34347475 68.16376998 23.33408306 74.03938103 23.31719017 C82.53445261 23.29278204 91.02947591 23.28499305 99.52457876 23.2812262 C113.30816132 23.27466456 127.09169053 23.25471119 140.87524414 23.22631836 C154.26261122 23.19877035 167.6499638 23.1775404 181.03735352 23.16479492 C181.86291223 23.16400675 182.68847094 23.16321858 183.53904658 23.16240653 C187.68073978 23.15849134 191.82243309 23.15470023 195.96412647 23.15097082 C230.30945603 23.11988386 264.65472226 23.06705589 299 23 C298.484375 22.05125 297.96875 21.1025 297.4375 20.125 C296.963125 19.09375 296.48875 18.0625 296 17 C296.33 16.34 296.66 15.68 297 15 C298.0055761 16.45449401 299.00430435 17.91372443 300 19.375 C300.8353125 20.59316406 300.8353125 20.59316406 301.6875 21.8359375 C303 24 303 24 303 26 C267.66134651 26.11453423 232.32273069 26.20259393 196.98393054 26.25532665 C192.8084599 26.26157991 188.63298963 26.26805155 184.45751953 26.2746582 C183.21066884 26.27662553 183.21066884 26.27662553 181.93862924 26.2786326 C168.49307078 26.30036784 155.04761961 26.33977895 141.60212472 26.38576398 C127.79784198 26.43258109 113.9936153 26.46030648 100.18925643 26.47044247 C91.67649526 26.47729077 83.16403738 26.49889203 74.6513696 26.53958233 C68.80776123 26.56608566 62.96430883 26.5739839 57.12064478 26.56750689 C53.75283983 26.56431558 50.38598796 26.57184631 47.01820564 26.59602737 C43.3567114 26.62102248 39.69649905 26.61487991 36.03497314 26.60127258 C34.45904243 26.62311889 34.45904243 26.62311889 32.85127473 26.64540654 C23.23632511 26.54927981 13.58742133 23.53950891 6.46875 16.8046875 C2.41488372 11.82360713 -0.38190185 6.49233138 0 0 Z " fill="#1C3A76" transform="translate(387,639)"/>
<path d="M0 0 C14 0 14 0 17.8125 2.375 C21.25566195 6.50679434 21.18692278 8.88843618 21.25 14.25 C21.27578125 15.55453125 21.3015625 16.8590625 21.328125 18.203125 C20.97383374 22.30278103 20.23215055 24.56442916 18 28 C13 32 13 32 0 32 C0 21.44 0 10.88 0 0 Z " fill="#013878" transform="translate(870,890)"/>
<path d="M0 0 C0.33 0 0.66 0 1 0 C1.1959375 0.92554688 1.391875 1.85109375 1.59375 2.8046875 C3.95433448 13.5322628 7.045621 23.96765794 10.35742188 34.43896484 C10.86885742 36.0605249 10.86885742 36.0605249 11.390625 37.71484375 C11.70032227 38.68542725 12.01001953 39.65601074 12.32910156 40.65600586 C13 43 13 43 13 45 C4.09 45 -4.82 45 -14 45 C-12.20729042 38.42673153 -10.4178716 31.94817931 -8.30078125 25.48828125 C-8.0608696 24.74918015 -7.82095795 24.01007904 -7.57377625 23.24858093 C-6.82243399 20.93575946 -6.06754522 18.62411489 -5.3125 16.3125 C-4.79598632 14.72468666 -4.27970853 13.13679656 -3.76367188 11.54882812 C-2.51182944 7.6983294 -1.25680972 3.84888011 0 0 Z " fill="#02367B" transform="translate(358,761)"/>
<path d="M0 0 C0.33 0 0.66 0 1 0 C1.1959375 0.76957031 1.391875 1.53914062 1.59375 2.33203125 C4.27305677 12.62195508 7.28515792 22.80244452 10.35742188 32.98168945 C10.86885742 34.68651489 10.86885742 34.68651489 11.390625 36.42578125 C11.70032227 37.45098877 12.01001953 38.47619629 12.32910156 39.5324707 C13 42 13 42 13 44 C4.09 44 -4.82 44 -14 44 C-9.78462268 29.17818941 -4.93532097 14.59622386 0 0 Z " fill="#014085" transform="translate(806,762)"/>
<path d="M0 0 C3.2702574 2.11109685 6.2424884 4.4849768 8 8 C8.58438963 12.92556974 8.58569025 15.89544452 5.5625 19.9375 C2.40645575 23.20572591 -0.40176782 24.0561176 -4.890625 24.19921875 C-9.46264352 23.767417 -11.43067051 21.64424126 -14.375 18.3125 C-16.43335469 14.11662313 -16.42579584 11.40452856 -15 7 C-11.15451551 0.90026598 -7.19058744 -0.97499491 0 0 Z " fill="#F9FCFD" transform="translate(535,271)"/>
<path d="M0 0 C0.33 0 0.66 0 1 0 C1.32871094 1.40185547 1.32871094 1.40185547 1.6640625 2.83203125 C3.77602809 11.64097161 6.25213318 20.26762716 9.06884766 28.87817383 C11 34.81134445 11 34.81134445 11 37 C3.74 37 -3.52 37 -11 37 C-9.66626791 30.33133954 -8.27366753 24.28137864 -6.0625 17.9375 C-5.68448242 16.83051758 -5.68448242 16.83051758 -5.29882812 15.70117188 C-4.79406532 14.22303016 -4.28710432 12.74563708 -3.77783203 11.26904297 C-2.49307025 7.52121622 -1.24686557 3.76057321 0 0 Z " fill="#02357A" transform="translate(784,896)"/>
<path d="M0 0 C11.22 0 22.44 0 34 0 C34 44.22 34 88.44 34 134 C32 132 32 132 31.75390434 129.72364616 C31.75666972 128.28841449 31.75666972 128.28841449 31.75949097 126.82418823 C31.75674164 125.72759888 31.75399231 124.63100952 31.75115967 123.50119019 C31.75835022 122.29278473 31.76554077 121.08437927 31.77294922 119.83935547 C31.77265717 118.57109924 31.77236511 117.30284302 31.77206421 115.99615479 C31.77148903 112.51285692 31.78326993 109.02969606 31.79721212 105.54643011 C31.80969204 101.90824924 31.81088781 98.27006543 31.81326294 94.63186646 C31.81948579 87.73995545 31.83590744 80.84810768 31.85596192 73.95622456 C31.87829594 66.11111264 31.88930805 58.26599774 31.89935279 50.42086196 C31.92027301 34.28053175 31.95695923 18.14028868 32 2 C22.1 2 12.2 2 2 2 C2.33 2.99 2.66 3.98 3 5 C3.03954234 7.33299825 3.04401732 9.66708189 3 12 C2.67 12 2.34 12 2 12 C1.34 8.04 0.68 4.08 0 0 Z " fill="#001A69" transform="translate(699,375)"/>
<path d="M0 0 C-1.98 0.66 -3.96 1.32 -6 2 C-6 29.39 -6 56.78 -6 85 C-6.99 84.67 -7.98 84.34 -9 84 C-9 56.61 -9 29.22 -9 1 C-3.375 -1.25 -3.375 -1.25 0 0 Z " fill="#001B6E" transform="translate(1002,753)"/>
<path d="M0 0 C11.46052884 -1.0314476 11.46052884 -1.0314476 16.5 2.5 C23.32414309 8.54545457 25.59023443 17.1207338 26.20703125 25.97045898 C26.30400074 29.25353269 26.32203115 32.52806657 26.3125 35.8125 C26.32861328 36.91142578 26.34472656 38.01035156 26.36132812 39.14257812 C26.36717085 49.05767408 25.39684173 59.05909303 19 67 C19 63.71816135 19.73524586 61.84594551 20.9375 58.8125 C26.27071733 44.37700715 26.11243291 24.22941312 19.6875 10.1875 C18.16146365 7.16077675 17.43722588 6.20677007 14.33203125 4.73828125 C13.56246094 4.49464844 12.79289063 4.25101563 12 4 C12 3.34 12 2.68 12 2 C8.04 1.67 4.08 1.34 0 1 C0 0.67 0 0.34 0 0 Z " fill="#061455" transform="translate(601,889)"/>
<path d="M0 0 C2 1 2 1 2.77783203 3.00952148 C3.13917236 4.30224976 3.13917236 4.30224976 3.5078125 5.62109375 C3.77207031 6.55630859 4.03632812 7.49152344 4.30859375 8.45507812 C4.57800781 9.43927734 4.84742188 10.42347656 5.125 11.4375 C5.54072266 12.90799805 5.54072266 12.90799805 5.96484375 14.40820312 C8 21.6916564 8 21.6916564 8 24 C-0.91 24 -9.82 24 -19 24 C-18.34 22.68 -17.68 21.36 -17 20 C-17 20.66 -17 21.32 -17 22 C-9.74 21.67 -2.48 21.34 5 21 C3.35878331 15.21008121 3.35878331 15.21008121 1.70898438 9.42260742 C1.50595703 8.69920166 1.30292969 7.9757959 1.09375 7.23046875 C0.88427734 6.49207764 0.67480469 5.75368652 0.45898438 4.99291992 C0 3 0 3 0 0 Z " fill="#0D2269" transform="translate(811,782)"/>
<path d="M0 0 C-3.08809695 1.76462683 -4.23312136 2 -8 2 C-8 4.31 -8 6.62 -8 9 C-10.9660147 9.85609898 -13.59393947 10.12199467 -16.67675781 10.11352539 C-17.59741028 10.11344986 -18.51806274 10.11337433 -19.46661377 10.11329651 C-20.45216248 10.10813522 -21.43771118 10.10297394 -22.453125 10.09765625 C-23.46848328 10.0962413 -24.48384155 10.09482635 -25.52996826 10.09336853 C-28.77000892 10.08777516 -32.00998025 10.07522385 -35.25 10.0625 C-37.44791567 10.05748414 -39.64583242 10.05292139 -41.84375 10.04882812 C-47.22919029 10.0378079 -52.61459019 10.02107633 -58 10 C-58 9.67 -58 9.34 -58 9 C-43.15 9 -28.3 9 -13 9 C-12.67 6.69 -12.34 4.38 -12 2 C-8.77193615 -0.96981874 -4.12574024 -0.13752467 0 0 Z " fill="#011055" transform="translate(428,839)"/>
<path d="M0 0 C10.56 0 21.12 0 32 0 C32.495 0.99 32.495 0.99 33 2 C22.77 2 12.54 2 2 2 C2.33 2.99 2.66 3.98 3 5 C3.03954234 7.33299825 3.04401732 9.66708189 3 12 C2.67 12 2.34 12 2 12 C1.34 8.04 0.68 4.08 0 0 Z " fill="#011F6B" transform="translate(699,375)"/>
<path d="M0 0 C0.99 0.33 1.98 0.66 3 1 C2.67 1.66 2.34 2.32 2 3 C1.91550372 4.7404417 1.89276976 6.48409722 1.90234375 8.2265625 C1.90556641 9.2578125 1.90878906 10.2890625 1.91210938 11.3515625 C1.92048828 12.43179688 1.92886719 13.51203125 1.9375 14.625 C1.94201172 15.71296875 1.94652344 16.8009375 1.95117188 17.921875 C1.9629821 20.61460662 1.98091795 23.30731009 2 26 C5.3 26.33 8.6 26.66 12 27 C9.75337355 29.24662645 9.06068417 29.50367284 6 30 C3.69 30 1.38 30 -1 30 C-0.67 20.1 -0.34 10.2 0 0 Z " fill="#013F8A" transform="translate(871,892)"/>
<path d="M0 0 C0 3.93235469 -1.54945341 5.02964049 -4 8 C-4.33 8.99 -4.66 9.98 -5 11 C-7.00390625 12.578125 -7.00390625 12.578125 -9.5625 14.25 C-14.38383532 17.50353419 -18.72148424 21.06806792 -23 25 C-23.66 24.67 -24.32 24.34 -25 24 C-23.80117188 22.90945313 -23.80117188 22.90945313 -22.578125 21.796875 C-14.84418712 14.72787798 -7.34877764 7.46794701 0 0 Z " fill="#072369" transform="translate(840,525)"/>
<path d="M0 0 C1 3 1 3 0.07421875 5.5625 C-1.34780864 10.11298765 -1.25364722 14.26525197 -1.1875 19 C-1.1865332 20.31484375 -1.1865332 20.31484375 -1.18554688 21.65625 C-1.1546801 26.21081371 -0.92108823 30.51982683 0 35 C-0.45375 34.38125 -0.9075 33.7625 -1.375 33.125 C-2.97108919 30.94080167 -2.97108919 30.94080167 -5 29 C-5.08975044 26.13097775 -5.05002469 23.41768039 -4.875 20.5625 C-4.82931885 19.75441895 -4.7836377 18.94633789 -4.73657227 18.11376953 C-4.26281964 11.60340762 -2.80554448 5.92426602 0 0 Z " fill="#031F6D" transform="translate(683,618)"/>
<path d="M0 0 C0.33 0 0.66 0 1 0 C1.69951063 2.413762 2.38483919 4.83010234 3.0625 7.25 C3.26166016 7.93191406 3.46082031 8.61382813 3.66601562 9.31640625 C5.40009269 15.58342161 5.40009269 15.58342161 4 19 C3.49166409 17.75336669 2.99368855 16.50250613 2.5 15.25 C2.2215625 14.55390625 1.943125 13.8578125 1.65625 13.140625 C1 11 1 11 1 7 C0.34 7 -0.32 7 -1 7 C-1.1546875 8.7634375 -1.1546875 8.7634375 -1.3125 10.5625 C-1.82914958 14.82485903 -3.1508361 18.14087534 -5 22 C-6.08557892 18.74004193 -5.91310151 16.89457573 -4.78515625 13.671875 C-4.51123047 12.87265625 -4.23730469 12.0734375 -3.95507812 11.25 C-3.51325195 10.0125 -3.51325195 10.0125 -3.0625 8.75 C-2.77181641 7.90953125 -2.48113281 7.0690625 -2.18164062 6.203125 C-1.46378767 4.13194269 -0.73633881 2.06466738 0 0 Z " fill="#08195D" transform="translate(806,762)"/>
<path d="M0 0 C-0.99 0.495 -0.99 0.495 -2 1 C-2.99 0.67 -3.98 0.34 -5 0 C-7.57265818 -0.07029121 -10.11641431 -0.09370832 -12.6875 -0.0625 C-13.38939453 -0.05798828 -14.09128906 -0.05347656 -14.81445312 -0.04882812 C-16.54300538 -0.03706927 -18.27151365 -0.01913454 -20 0 C-20.33 0.66 -20.66 1.32 -21 2 C-21.98731742 3.34275169 -22.98594743 4.67732273 -24 6 C-25.32 5.67 -26.64 5.34 -28 5 C-19.93911694 -4.0379598 -10.45167142 -5.3370237 0 0 Z " fill="#0D296C" transform="translate(276,755)"/>
<path d="M0 0 C-3.26545761 1.88391785 -6.28111761 2.49287967 -10 3 C-10.33 5.31 -10.66 7.62 -11 10 C-11.33 10 -11.66 10 -12 10 C-12 8.02 -12 6.04 -12 4 C-12.66 4 -13.32 4 -14 4 C-14.33 5.98 -14.66 7.96 -15 10 C-15.33 10 -15.66 10 -16 10 C-16 7.36 -16 4.72 -16 2 C-18.31 1.67 -20.62 1.34 -23 1 C-19.92784561 0.08973203 -17.20319784 -0.25288404 -14 0 C-13.34 0.66 -12.68 1.32 -12 2 C-11.0925 1.690625 -10.185 1.38125 -9.25 1.0625 C-2.37209302 -1.18604651 -2.37209302 -1.18604651 0 0 Z " fill="#061D62" transform="translate(879,838)"/>
<path d="M0 0 C0.33 0.66 0.66 1.32 1 2 C-1.37789661 9.13368984 -1.37789661 9.13368984 -4.77734375 10.94921875 C-11.21231606 13.14851308 -18.85826472 14.8167948 -25.32421875 11.98046875 C-25.87722656 11.65691406 -26.43023437 11.33335937 -27 11 C-26.34 10.67 -25.68 10.34 -25 10 C-24.01 10.33 -23.02 10.66 -22 11 C-14.94596491 11.74253001 -9.8645884 10.00988642 -4 6 C-2.21766278 4.04856925 -1.21506437 2.37489855 0 0 Z " fill="#041A62" transform="translate(489,431)"/>
<path d="M0 0 C1.56393356 3.97376829 0.36145292 6.81377903 -0.9375 10.75 C-1.31777344 11.92046875 -1.69804688 13.0909375 -2.08984375 14.296875 C-2.39019531 15.18890625 -2.69054687 16.0809375 -3 17 C-3.33 17 -3.66 17 -4 17 C-6.29612756 7.58997722 -6.29612756 7.58997722 -6 3 C-5.01 3.99 -4.02 4.98 -3 6 C-2.01 4.02 -1.02 2.04 0 0 Z " fill="#0C184C" transform="translate(685,802)"/>
<path d="M0 0 C0.99 0.495 0.99 0.495 2 1 C2.73075648 3.3140622 3.40138258 5.64828869 4 8 C4.99 5.69 5.98 3.38 7 1 C8.44715727 4.87186448 7.5441918 7.8232328 6.5625 11.75 C6.27503906 12.92046875 5.98757813 14.0909375 5.69140625 15.296875 C5.46324219 16.18890625 5.23507812 17.0809375 5 18 C3.31099986 14.89370844 2.29373333 11.84794949 1.375 8.4375 C1.11460937 7.48746094 0.85421875 6.53742187 0.5859375 5.55859375 C0 3 0 3 0 0 Z " fill="#061552" transform="translate(734,801)"/>
<path d="M0 0 C2.52480693 2.52480693 2.55738633 4.13823034 3.125 7.625 C3.29257812 8.62789062 3.46015625 9.63078125 3.6328125 10.6640625 C3.75398437 11.43492187 3.87515625 12.20578125 4 13 C3.67 12.34 3.34 11.68 3 11 C1.35 11.33 -0.3 11.66 -2 12 C-1.85904936 10.3745692 -1.71207913 8.74965949 -1.5625 7.125 C-1.48128906 6.22007812 -1.40007813 5.31515625 -1.31640625 4.3828125 C-1 2 -1 2 0 0 Z " fill="#07245F" transform="translate(704,775)"/>
<path d="M0 0 C1.04449911 3.13349732 0.93423645 3.98968256 0 7 C-0.66 7 -1.32 7 -2 7 C-1.896875 7.72574219 -1.79375 8.45148437 -1.6875 9.19921875 C-2.13209804 13.1839287 -3.97871722 14.28217567 -7 16.8125 C-7.928125 17.60269531 -8.85625 18.39289062 -9.8125 19.20703125 C-10.534375 19.79871094 -11.25625 20.39039063 -12 21 C-12.66 20.67 -13.32 20.34 -14 20 C-13.57589844 19.64550781 -13.15179688 19.29101562 -12.71484375 18.92578125 C-6.77406861 13.53338535 -3.51344839 7.10165099 0 0 Z " fill="#092061" transform="translate(295,941)"/>
<path d="M0 0 C0.66 0 1.32 0 2 0 C2 2.97 2 5.94 2 9 C-2.455 10.485 -2.455 10.485 -7 12 C-7.33 13.98 -7.66 15.96 -8 18 C-8.66 17.01 -9.32 16.02 -10 15 C-9.67 13.35 -9.34 11.7 -9 10 C-4.05 9.01 -4.05 9.01 1 8 C0.67 5.36 0.34 2.72 0 0 Z " fill="#051457" transform="translate(677,742)"/>
<path d="M0 0 C0.33 0.66 0.66 1.32 1 2 C1.99 2.33 2.98 2.66 4 3 C4.36504603 4.58086048 4.71660506 6.16483907 5.0625 7.75 C5.25972656 8.63171875 5.45695313 9.5134375 5.66015625 10.421875 C5.99825872 12.98679028 5.81158635 14.57091639 5 17 C4.16080602 14.73117913 3.32848276 12.46022973 2.5 10.1875 C2.26152344 9.54490234 2.02304687 8.90230469 1.77734375 8.24023438 C0.72931254 5.35066261 0 3.09923939 0 0 Z " fill="#062367" transform="translate(817,942)"/>
<path d="M0 0 C0 0.66 0 1.32 0 2 C-0.81404297 2.39832031 -0.81404297 2.39832031 -1.64453125 2.8046875 C-2.71767578 3.33449219 -2.71767578 3.33449219 -3.8125 3.875 C-4.52019531 4.22304688 -5.22789062 4.57109375 -5.95703125 4.9296875 C-8.21246418 6.0656486 -8.21246418 6.0656486 -11 8 C-12.9896995 8.39013716 -14.99019869 8.73202649 -17 9 C-14.41994017 6.00641141 -11.45675187 4.54433112 -7.9375 2.8125 C-6.87402344 2.28269531 -5.81054688 1.75289062 -4.71484375 1.20703125 C-2 0 -2 0 0 0 Z " fill="#061D63" transform="translate(797,562)"/>
<path d="M0 0 C6.75 0.875 6.75 0.875 9 2 C7.25 9.75 7.25 9.75 5 12 C4.875 5.375 4.875 5.375 6 2 C4.35 2 2.7 2 1 2 C0.67 1.34 0.34 0.68 0 0 Z " fill="#061D62" transform="translate(970,888)"/>
<path d="M0 0 C0.97608217 2.92824652 1.08226668 4.95613276 1 8 C0.34 8 -0.32 8 -1 8 C-2.485 13.445 -2.485 13.445 -4 19 C-5.17443134 14.30227464 -4.14389742 11.61845553 -2.5625 7.25 C-2.19801758 6.20392578 -2.19801758 6.20392578 -1.82617188 5.13671875 C-1.22689752 3.42114902 -0.61470115 1.71010285 0 0 Z " fill="#09195D" transform="translate(697,802)"/>
<path d="M0 0 C0.66 0.33 1.32 0.66 2 1 C0.68 2.32 -0.64 3.64 -2 5 C-1.484375 5.78375 -0.96875 6.5675 -0.4375 7.375 C0.036875 8.24125 0.51125 9.1075 1 10 C0.67 10.66 0.34 11.32 0 12 C-1.98 9.03 -3.96 6.06 -6 3 C-4.03533587 1.93224776 -2.03144641 0.93446535 0 0 Z " fill="#071B59" transform="translate(899,924)"/>
<path d="M0 0 C0.66 3.63 1.32 7.26 2 11 C-0.57164453 8.42835547 -2.83401971 5.91287004 -5 3 C-5 2.34 -5 1.68 -5 1 C-3 0 -3 0 0 0 Z " fill="#051E60" transform="translate(488,796)"/>
<path d="M0 0 C0.78375 0.04125 1.5675 0.0825 2.375 0.125 C1.694375 0.62 1.694375 0.62 1 1.125 C-1.46819974 4.1627843 -1.81343144 7.31687061 -2.625 11.125 C-2.955 11.125 -3.285 11.125 -3.625 11.125 C-3.84674933 9.66864629 -4.05198698 8.20977044 -4.25 6.75 C-4.36601563 5.93789063 -4.48203125 5.12578125 -4.6015625 4.2890625 C-4.60929688 3.57492187 -4.61703125 2.86078125 -4.625 2.125 C-2.625 0.125 -2.625 0.125 0 0 Z " fill="#06327A" transform="translate(551.625,887.875)"/>
<path d="M0 0 C0.33 0 0.66 0 1 0 C1 2.64 1 5.28 1 8 C-2.4019487 10.09350689 -5.05272412 10.17942163 -9 10 C-6.38058783 8.25372522 -4.96175123 7.61277612 -2 7 C-1.34 4.69 -0.68 2.38 0 0 Z " fill="#05195C" transform="translate(527,953)"/>
<path d="M0 0 C0.99 0.33 1.98 0.66 3 1 C4.40664926 1.14492123 5.8181133 1.24628931 7.23046875 1.31640625 C8.43413086 1.37924805 8.43413086 1.37924805 9.66210938 1.44335938 C10.49548828 1.48267578 11.32886719 1.52199219 12.1875 1.5625 C13.03248047 1.60568359 13.87746094 1.64886719 14.74804688 1.69335938 C16.83184433 1.79931518 18.91590103 1.9001502 21 2 C21 2.33 21 2.66 21 3 C14.07 3 7.14 3 0 3 C0 2.01 0 1.02 0 0 Z " fill="#024990" transform="translate(906,832)"/>
<path d="M0 0 C2.61500768 2.36595933 4.38999603 4.86049226 6 8 C5.67 8.66 5.34 9.32 5 10 C4.67 9.01 4.34 8.02 4 7 C2.68 7.33 1.36 7.66 0 8 C0 5.36 0 2.72 0 0 Z " fill="#08296C" transform="translate(678,903)"/>
<path d="M0 0 C1 2 1 2 1 6 C-1 9.25 -1 9.25 -3 12 C-3.88336837 9.5332355 -4.1312406 8.36140628 -3.22265625 5.859375 C-2.83980469 5.16328125 -2.45695313 4.4671875 -2.0625 3.75 C-1.68222656 3.04359375 -1.30195312 2.3371875 -0.91015625 1.609375 C-0.60980469 1.07828125 -0.30945313 0.5471875 0 0 Z " fill="#021F66" transform="translate(587,371)"/>
<path d="M0 0 C1 2 1 2 1.4375 4.4375 C1.88629903 7.22313472 1.88629903 7.22313472 4 10 C3.21625 9.67 2.4325 9.34 1.625 9 C-0.84332497 7.88133489 -0.84332497 7.88133489 -3 8 C-2.25 2.25 -2.25 2.25 0 0 Z " fill="#01256B" transform="translate(473,289)"/>
<path d="M0 0 C3 1 3 1 4.25 2.8125 C5.11637742 5.33943414 4.88492145 6.52221994 4 9 C3.34 7.68 2.68 6.36 2 5 C1.34 5 0.68 5 0 5 C-0.5625 3.0625 -0.5625 3.0625 -1 1 C-0.67 0.67 -0.34 0.34 0 0 Z " fill="#021E61" transform="translate(641,752)"/>
<path d="M0 0 C0.33 0 0.66 0 1 0 C1 2.31 1 4.62 1 7 C0.34 7 -0.32 7 -1 7 C-1.33 8.65 -1.66 10.3 -2 12 C-3.15957207 8.52128379 -2.77456651 7.65780355 -1.5625 4.3125 C-1.13130859 3.10013672 -1.13130859 3.10013672 -0.69140625 1.86328125 C-0.46324219 1.24839844 -0.23507812 0.63351562 0 0 Z " fill="#14235D" transform="translate(784,896)"/>
<path d="M0 0 C0.98120464 3.05263664 0.98120464 4.94736336 0 8 C-0.66 8 -1.32 8 -2 8 C-2 8.66 -2 9.32 -2 10 C-2.66 10 -3.32 10 -4 10 C-3.29445932 6.33118845 -1.72264494 3.29549466 0 0 Z " fill="#05266B" transform="translate(685,802)"/>
<path d="M0 0 C0.66 0.33 1.32 0.66 2 1 C-5.11389522 6.55580866 -5.11389522 6.55580866 -10 7 C-7.01767477 3.67356033 -4.13629913 1.70847138 0 0 Z " fill="#071A60" transform="translate(566,302)"/>
<path d="M0 0 C0.33 0.99 0.66 1.98 1 3 C-2.3 3.33 -5.6 3.66 -9 4 C-6.94469992 -0.11060016 -4.15744224 -0.22472661 0 0 Z " fill="#0D498E" transform="translate(734,582)"/>
<path d="M0 0 C0.66 0 1.32 0 2 0 C1.42655063 2.86724686 1.1385485 3.8614515 -1 6 C-1.99 5.67 -2.98 5.34 -4 5 C-2.71937515 3.2925002 -1.38232443 1.62626404 0 0 Z " fill="#113373" transform="translate(617,325)"/>
<path d="M0 0 C0.33 0.99 0.66 1.98 1 3 C1.66 3.33 2.32 3.66 3 4 C2.01 4.495 2.01 4.495 1 5 C0.27840576 6.64363134 -0.39351421 8.31050386 -1 10 C-1.33 10 -1.66 10 -2 10 C-1.125 2.25 -1.125 2.25 0 0 Z " fill="#072064" transform="translate(755,796)"/>
<path d="M0 0 C0.33 0 0.66 0 1 0 C1.75 2.75 1.75 2.75 2 6 C0.0625 8.375 0.0625 8.375 -2 10 C-2 6.38970831 -1.03907418 3.44193324 0 0 Z " fill="#011E67" transform="translate(717,670)"/>
<path d="M0 0 C0.33 0 0.66 0 1 0 C1.33 2.31 1.66 4.62 2 7 C1.01 7 0.02 7 -1 7 C-1.33 7.99 -1.66 8.98 -2 10 C-1.54177532 6.53058454 -1.10868317 3.32604951 0 0 Z " fill="#09174B" transform="translate(806,762)"/>
<path d="M0 0 C-1.11375 0.45375 -2.2275 0.9075 -3.375 1.375 C-6.96199008 2.72465986 -6.96199008 2.72465986 -9 5 C-8.67 3.35 -8.34 1.7 -8 0 C-4.94736336 -0.98120464 -3.05263664 -0.98120464 0 0 Z " fill="#06155B" transform="translate(1002,753)"/>
<path d="M0 0 C0.66 0.99 1.32 1.98 2 3 C-2.75 6 -2.75 6 -5 6 C-5 5.34 -5 4.68 -5 4 C-4.0409375 3.8453125 -4.0409375 3.8453125 -3.0625 3.6875 C-2.381875 3.460625 -1.70125 3.23375 -1 3 C-0.67 2.01 -0.34 1.02 0 0 Z " fill="#072B70" transform="translate(654,635)"/>
</svg>
