<?xml version="1.0" encoding="UTF-8"?>
<svg version="1.1" xmlns="http://www.w3.org/2000/svg" width="1229" height="1229">
<path d="M0 0 C405.57 0 811.14 0 1229 0 C1229 405.57 1229 811.14 1229 1229 C823.43 1229 417.86 1229 0 1229 C0 823.43 0 417.86 0 0 Z " fill="#030303" transform="translate(0,0)"/>
<path d="M0 0 C4.12395236 3.46986321 7.53091729 7.60986837 11.01953125 11.69921875 C11.67953125 12.35921875 12.33953125 13.01921875 13.01953125 13.69921875 C16.65252425 26.01102838 15.9469943 37.21865873 10.01953125 48.69921875 C5.97048227 54.2353436 0.86100372 59.89883126 -5.98046875 61.69921875 C-7.63046875 61.69921875 -9.28046875 61.69921875 -10.98046875 61.69921875 C-10.98046875 72.25921875 -10.98046875 82.81921875 -10.98046875 93.69921875 C-8.75151855 93.68874512 -6.52256836 93.67827148 -4.22607422 93.66748047 C3.18982065 93.63414148 10.60571909 93.61217018 18.02166939 93.59559441 C22.51204563 93.58521658 27.00234421 93.5711689 31.49267578 93.54833984 C35.83693058 93.52639504 40.18111132 93.51460518 44.52541733 93.50946426 C46.17176349 93.50580692 47.81810623 93.49866681 49.46442032 93.48775864 C80.91513844 93.28791433 111.89243424 101.60041993 136.01953125 122.69921875 C136.74914062 123.29863281 137.47875 123.89804687 138.23046875 124.515625 C159.44042302 142.4318833 172.32962838 168.64065684 177.01953125 195.69921875 C177.09489336 197.17291257 177.12780319 198.64941868 177.1171875 200.125 C177.11396484 200.92099609 177.11074219 201.71699219 177.10742188 202.53710938 C177.09904297 203.35373047 177.09066406 204.17035156 177.08203125 205.01171875 C177.07526367 206.2656543 177.07526367 206.2656543 177.06835938 207.54492188 C177.05663673 209.59638524 177.03870328 211.64781148 177.01953125 213.69921875 C177.81875 213.64121094 178.61796875 213.58320313 179.44140625 213.5234375 C190.21421931 213.08089236 199.53496035 215.83075659 208.01953125 222.69921875 C216.34787065 230.71209074 220.02647732 241.30284942 220.27832031 252.7253418 C220.29144303 255.05383784 220.29310068 257.38241804 220.28515625 259.7109375 C220.2870697 260.95615677 220.28898315 262.20137604 220.29095459 263.48432922 C220.29265753 266.78208504 220.28466143 270.07964987 220.2734375 273.37738037 C220.26698795 276.69497071 220.28231252 280.01250531 220.29296875 283.33007812 C220.29164619 285.89453223 220.2890818 288.45898606 220.28515625 291.0234375 C220.28920471 292.19992355 220.29325317 293.37640961 220.29742432 294.58854675 C220.21352144 309.6860387 218.59806976 323.54779512 207.51953125 334.69921875 C198.82557708 341.90278077 188.01657042 343.50716449 177.01953125 342.69921875 C176.98214844 343.70339844 176.94476562 344.70757813 176.90625 345.7421875 C175.47267286 377.84167783 160.78177453 403.81023211 139.01953125 426.69921875 C138.375 427.41980469 137.73046875 428.14039063 137.06640625 428.8828125 C120.95207046 446.29330138 91.52446918 460.24265516 68.01953125 461.69921875 C64.3444957 461.81636864 60.69383949 461.83419334 57.01953125 461.69921875 C57.01953125 463.67921875 57.01953125 465.65921875 57.01953125 467.69921875 C57.76074219 467.66441406 58.50195312 467.62960937 59.265625 467.59375 C82.4991521 466.9965602 105.59318241 473.93436215 123.01953125 489.69921875 C125.33203125 492.38671875 125.33203125 492.38671875 127.01953125 494.69921875 C127.62667969 495.28832031 128.23382812 495.87742187 128.859375 496.484375 C144.45496119 512.47478616 149.13349833 535.64305607 148.91796875 557.16015625 C148.8931543 558.29678711 148.86833984 559.43341797 148.84277344 560.60449219 C148.76853115 564.12159683 148.76074644 567.634527 148.76171875 571.15234375 C148.74208899 573.42581732 148.71878929 575.69926285 148.69140625 577.97265625 C148.68695496 579.00506439 148.68250366 580.03747253 148.67791748 581.10116577 C148.43377085 590.50447225 145.6817898 598.14954068 140.01953125 605.69921875 C138.93671875 607.18421875 138.93671875 607.18421875 137.83203125 608.69921875 C132.00371388 615.55288825 122.87043121 620.6037677 114.01953125 621.69921875 C110.37405664 621.84276403 106.73174931 621.83841902 103.08381653 621.83293152 C101.42780451 621.83632985 101.42780451 621.83632985 99.7383377 621.83979684 C96.03754328 621.84612887 92.33678556 621.84530798 88.63598633 621.84448242 C85.98303084 621.84747444 83.33007822 621.85084879 80.67712402 621.85466003 C74.21722318 621.86295901 67.75733146 621.86571455 61.29742572 621.86627241 C56.04403839 621.86674802 50.79065407 621.86880498 45.53726768 621.87197304 C30.63196714 621.88077826 15.7266738 621.88539273 0.82137064 621.88464256 C0.01817721 621.88460261 -0.78501621 621.88456265 -1.61254883 621.88452148 C-2.41672701 621.8844806 -3.22090519 621.88443972 -4.0494524 621.8843976 C-17.07493624 621.88399137 -30.10039114 621.89355548 -43.12586661 621.90765985 C-56.51110863 621.92203899 -69.89633654 621.92892916 -83.28158647 621.92806607 C-90.79198161 621.92773459 -98.30234643 621.93046016 -105.8127346 621.94124413 C-112.20885192 621.95036946 -118.60492518 621.95250779 -125.0010462 621.9457347 C-128.26114006 621.94247947 -131.52113233 621.94347287 -134.78122139 621.95108795 C-138.32416771 621.95882607 -141.8668941 621.9541508 -145.40983582 621.94645691 C-146.42814883 621.95160047 -147.44646184 621.95674404 -148.49563283 621.96204346 C-162.08710434 621.89708368 -172.10141663 619.45784057 -182.23046875 610.13671875 C-188.9467123 603.16979115 -193.05673499 593.89533895 -193.14160156 584.15283203 C-193.15120911 583.2573465 -193.16081665 582.36186096 -193.17071533 581.4392395 C-193.17496521 580.47573578 -193.17921509 579.51223206 -193.18359375 578.51953125 C-193.18929382 577.51518036 -193.1949939 576.51082947 -193.2008667 575.4760437 C-193.21031249 573.34601898 -193.21684901 571.21597968 -193.22070312 569.0859375 C-193.23032922 565.87082253 -193.26132347 562.65636908 -193.29296875 559.44140625 C-193.42995475 533.2549282 -186.93884309 509.87019889 -168.140625 490.7421875 C-149.63285331 472.60785297 -127.92109235 468.66942544 -102.98046875 466.69921875 C-102.65046875 465.37921875 -102.32046875 464.05921875 -101.98046875 462.69921875 C-103.26953125 462.73273438 -104.55859375 462.76625 -105.88671875 462.80078125 C-110.90059794 462.79490561 -115.58021948 462.08673926 -120.48046875 461.07421875 C-121.77706421 460.80798706 -121.77706421 460.80798706 -123.09985352 460.53637695 C-153.73019025 453.92444329 -182.38068299 435.52226374 -199.60546875 409.01171875 C-212.90434399 387.83720649 -220.50365698 366.75412189 -219.98046875 341.69921875 C-220.7796875 341.73402344 -221.57890625 341.76882813 -222.40234375 341.8046875 C-233.65609519 342.0820687 -242.69630427 341.48708005 -251.35546875 333.69921875 C-258.61098362 326.77751804 -263.63393052 318.75449791 -264.1343689 308.56591797 C-264.14722931 307.3904541 -264.16008972 306.21499023 -264.17333984 305.00390625 C-264.18151733 304.35106155 -264.18969482 303.69821686 -264.19812012 303.02558899 C-264.22283011 300.87514115 -264.23945935 298.72475902 -264.25390625 296.57421875 C-264.25922993 295.83378326 -264.2645536 295.09334778 -264.2700386 294.33047485 C-264.29671702 290.40571125 -264.31610255 286.48097876 -264.33056641 282.55615234 C-264.34385593 279.33222773 -264.37162237 276.10894354 -264.41259766 272.88525391 C-264.4623487 268.96957423 -264.48673899 265.05447088 -264.49379349 261.13848877 C-264.50043913 259.65872899 -264.51548279 258.17897864 -264.5396843 256.69940186 C-264.71275572 245.47168126 -263.01226459 235.98407697 -256.85546875 226.38671875 C-246.0651693 216.30013448 -237.21969582 212.2361428 -222.47265625 212.59375 C-221.65023437 212.62855469 -220.8278125 212.66335938 -219.98046875 212.69921875 C-220.03847656 211.78785156 -220.09648437 210.87648438 -220.15625 209.9375 C-220.71304228 193.94960737 -217.11650564 178.04885816 -209.98046875 163.69921875 C-209.54927734 162.81459961 -209.54927734 162.81459961 -209.109375 161.91210938 C-204.91645632 153.378389 -200.32789872 145.84007747 -193.98046875 138.69921875 C-192.71203125 137.23355469 -192.71203125 137.23355469 -191.41796875 135.73828125 C-169.93865573 111.29257506 -139.37084381 96.19870723 -106.98046875 93.69921875 C-95.10408135 93.16959483 -83.18743053 93.39857503 -71.30358887 93.4932251 C-66.20543202 93.52986682 -61.10716298 93.54318063 -56.00891113 93.56058502 C-48.33253768 93.58931199 -40.65687999 93.6469324 -32.98046875 93.69921875 C-33.31046875 82.80921875 -33.64046875 71.91921875 -33.98046875 60.69921875 C-35.63046875 60.03921875 -37.28046875 59.37921875 -38.98046875 58.69921875 C-43.1234492 56.62772853 -44.76581108 54.72586906 -46.98046875 50.69921875 C-47.45484375 50.24546875 -47.92921875 49.79171875 -48.41796875 49.32421875 C-54.78427733 42.70325783 -55.33290268 35.50008226 -55.19140625 26.82421875 C-54.86717548 18.01795093 -52.08489313 11.09236591 -45.98046875 4.69921875 C-33.66689205 -6.33795061 -14.27448906 -9.68106896 0 0 Z " fill="#050405" transform="translate(635.98046875,177.30078125)"/>
<path d="M0 0 C4.12395236 3.46986321 7.53091729 7.60986837 11.01953125 11.69921875 C11.67953125 12.35921875 12.33953125 13.01921875 13.01953125 13.69921875 C16.65252425 26.01102838 15.9469943 37.21865873 10.01953125 48.69921875 C5.97048227 54.2353436 0.86100372 59.89883126 -5.98046875 61.69921875 C-7.63046875 61.69921875 -9.28046875 61.69921875 -10.98046875 61.69921875 C-10.98046875 72.25921875 -10.98046875 82.81921875 -10.98046875 93.69921875 C-8.75151855 93.68874512 -6.52256836 93.67827148 -4.22607422 93.66748047 C3.18982065 93.63414148 10.60571909 93.61217018 18.02166939 93.59559441 C22.51204563 93.58521658 27.00234421 93.5711689 31.49267578 93.54833984 C35.83693058 93.52639504 40.18111132 93.51460518 44.52541733 93.50946426 C46.17176349 93.50580692 47.81810623 93.49866681 49.46442032 93.48775864 C80.91513844 93.28791433 111.89243424 101.60041993 136.01953125 122.69921875 C136.74914062 123.29863281 137.47875 123.89804687 138.23046875 124.515625 C159.44042302 142.4318833 172.32962838 168.64065684 177.01953125 195.69921875 C177.09489336 197.17291257 177.12780319 198.64941868 177.1171875 200.125 C177.11396484 200.92099609 177.11074219 201.71699219 177.10742188 202.53710938 C177.09904297 203.35373047 177.09066406 204.17035156 177.08203125 205.01171875 C177.07526367 206.2656543 177.07526367 206.2656543 177.06835938 207.54492188 C177.05663673 209.59638524 177.03870328 211.64781148 177.01953125 213.69921875 C177.81875 213.64121094 178.61796875 213.58320313 179.44140625 213.5234375 C190.21421931 213.08089236 199.53496035 215.83075659 208.01953125 222.69921875 C216.34787065 230.71209074 220.02647732 241.30284942 220.27832031 252.7253418 C220.29144303 255.05383784 220.29310068 257.38241804 220.28515625 259.7109375 C220.2870697 260.95615677 220.28898315 262.20137604 220.29095459 263.48432922 C220.29265753 266.78208504 220.28466143 270.07964987 220.2734375 273.37738037 C220.26698795 276.69497071 220.28231252 280.01250531 220.29296875 283.33007812 C220.29164619 285.89453223 220.2890818 288.45898606 220.28515625 291.0234375 C220.28920471 292.19992355 220.29325317 293.37640961 220.29742432 294.58854675 C220.21352144 309.6860387 218.59806976 323.54779512 207.51953125 334.69921875 C198.82557708 341.90278077 188.01657042 343.50716449 177.01953125 342.69921875 C176.98214844 343.70339844 176.94476562 344.70757813 176.90625 345.7421875 C175.47267286 377.84167783 160.78177453 403.81023211 139.01953125 426.69921875 C138.375 427.41980469 137.73046875 428.14039063 137.06640625 428.8828125 C120.95207046 446.29330138 91.52446918 460.24265516 68.01953125 461.69921875 C64.3444957 461.81636864 60.69383949 461.83419334 57.01953125 461.69921875 C57.01953125 463.67921875 57.01953125 465.65921875 57.01953125 467.69921875 C57.76074219 467.66441406 58.50195312 467.62960937 59.265625 467.59375 C82.4991521 466.9965602 105.59318241 473.93436215 123.01953125 489.69921875 C125.33203125 492.38671875 125.33203125 492.38671875 127.01953125 494.69921875 C127.62667969 495.28832031 128.23382812 495.87742187 128.859375 496.484375 C144.45496119 512.47478616 149.13349833 535.64305607 148.91796875 557.16015625 C148.8931543 558.29678711 148.86833984 559.43341797 148.84277344 560.60449219 C148.76853115 564.12159683 148.76074644 567.634527 148.76171875 571.15234375 C148.74208899 573.42581732 148.71878929 575.69926285 148.69140625 577.97265625 C148.68695496 579.00506439 148.68250366 580.03747253 148.67791748 581.10116577 C148.43377085 590.50447225 145.6817898 598.14954068 140.01953125 605.69921875 C138.93671875 607.18421875 138.93671875 607.18421875 137.83203125 608.69921875 C132.00371388 615.55288825 122.87043121 620.6037677 114.01953125 621.69921875 C110.37405664 621.84276403 106.73174931 621.83841902 103.08381653 621.83293152 C101.42780451 621.83632985 101.42780451 621.83632985 99.7383377 621.83979684 C96.03754328 621.84612887 92.33678556 621.84530798 88.63598633 621.84448242 C85.98303084 621.84747444 83.33007822 621.85084879 80.67712402 621.85466003 C74.21722318 621.86295901 67.75733146 621.86571455 61.29742572 621.86627241 C56.04403839 621.86674802 50.79065407 621.86880498 45.53726768 621.87197304 C30.63196714 621.88077826 15.7266738 621.88539273 0.82137064 621.88464256 C0.01817721 621.88460261 -0.78501621 621.88456265 -1.61254883 621.88452148 C-2.41672701 621.8844806 -3.22090519 621.88443972 -4.0494524 621.8843976 C-17.07493624 621.88399137 -30.10039114 621.89355548 -43.12586661 621.90765985 C-56.51110863 621.92203899 -69.89633654 621.92892916 -83.28158647 621.92806607 C-90.79198161 621.92773459 -98.30234643 621.93046016 -105.8127346 621.94124413 C-112.20885192 621.95036946 -118.60492518 621.95250779 -125.0010462 621.9457347 C-128.26114006 621.94247947 -131.52113233 621.94347287 -134.78122139 621.95108795 C-138.32416771 621.95882607 -141.8668941 621.9541508 -145.40983582 621.94645691 C-146.42814883 621.95160047 -147.44646184 621.95674404 -148.49563283 621.96204346 C-162.08710434 621.89708368 -172.10141663 619.45784057 -182.23046875 610.13671875 C-188.9467123 603.16979115 -193.05673499 593.89533895 -193.14160156 584.15283203 C-193.15120911 583.2573465 -193.16081665 582.36186096 -193.17071533 581.4392395 C-193.17496521 580.47573578 -193.17921509 579.51223206 -193.18359375 578.51953125 C-193.18929382 577.51518036 -193.1949939 576.51082947 -193.2008667 575.4760437 C-193.21031249 573.34601898 -193.21684901 571.21597968 -193.22070312 569.0859375 C-193.23032922 565.87082253 -193.26132347 562.65636908 -193.29296875 559.44140625 C-193.42995475 533.2549282 -186.93884309 509.87019889 -168.140625 490.7421875 C-149.63285331 472.60785297 -127.92109235 468.66942544 -102.98046875 466.69921875 C-102.65046875 465.37921875 -102.32046875 464.05921875 -101.98046875 462.69921875 C-103.26953125 462.73273438 -104.55859375 462.76625 -105.88671875 462.80078125 C-110.90059794 462.79490561 -115.58021948 462.08673926 -120.48046875 461.07421875 C-121.77706421 460.80798706 -121.77706421 460.80798706 -123.09985352 460.53637695 C-153.73019025 453.92444329 -182.38068299 435.52226374 -199.60546875 409.01171875 C-212.90434399 387.83720649 -220.50365698 366.75412189 -219.98046875 341.69921875 C-220.7796875 341.73402344 -221.57890625 341.76882813 -222.40234375 341.8046875 C-233.65609519 342.0820687 -242.69630427 341.48708005 -251.35546875 333.69921875 C-258.61098362 326.77751804 -263.63393052 318.75449791 -264.1343689 308.56591797 C-264.14722931 307.3904541 -264.16008972 306.21499023 -264.17333984 305.00390625 C-264.18151733 304.35106155 -264.18969482 303.69821686 -264.19812012 303.02558899 C-264.22283011 300.87514115 -264.23945935 298.72475902 -264.25390625 296.57421875 C-264.25922993 295.83378326 -264.2645536 295.09334778 -264.2700386 294.33047485 C-264.29671702 290.40571125 -264.31610255 286.48097876 -264.33056641 282.55615234 C-264.34385593 279.33222773 -264.37162237 276.10894354 -264.41259766 272.88525391 C-264.4623487 268.96957423 -264.48673899 265.05447088 -264.49379349 261.13848877 C-264.50043913 259.65872899 -264.51548279 258.17897864 -264.5396843 256.69940186 C-264.71275572 245.47168126 -263.01226459 235.98407697 -256.85546875 226.38671875 C-246.0651693 216.30013448 -237.21969582 212.2361428 -222.47265625 212.59375 C-221.65023437 212.62855469 -220.8278125 212.66335938 -219.98046875 212.69921875 C-220.03847656 211.78785156 -220.09648437 210.87648438 -220.15625 209.9375 C-220.71304228 193.94960737 -217.11650564 178.04885816 -209.98046875 163.69921875 C-209.54927734 162.81459961 -209.54927734 162.81459961 -209.109375 161.91210938 C-204.91645632 153.378389 -200.32789872 145.84007747 -193.98046875 138.69921875 C-192.71203125 137.23355469 -192.71203125 137.23355469 -191.41796875 135.73828125 C-169.93865573 111.29257506 -139.37084381 96.19870723 -106.98046875 93.69921875 C-95.10408135 93.16959483 -83.18743053 93.39857503 -71.30358887 93.4932251 C-66.20543202 93.52986682 -61.10716298 93.54318063 -56.00891113 93.56058502 C-48.33253768 93.58931199 -40.65687999 93.6469324 -32.98046875 93.69921875 C-33.31046875 82.80921875 -33.64046875 71.91921875 -33.98046875 60.69921875 C-35.63046875 60.03921875 -37.28046875 59.37921875 -38.98046875 58.69921875 C-43.1234492 56.62772853 -44.76581108 54.72586906 -46.98046875 50.69921875 C-47.45484375 50.24546875 -47.92921875 49.79171875 -48.41796875 49.32421875 C-54.78427733 42.70325783 -55.33290268 35.50008226 -55.19140625 26.82421875 C-54.86717548 18.01795093 -52.08489313 11.09236591 -45.98046875 4.69921875 C-33.66689205 -6.33795061 -14.27448906 -9.68106896 0 0 Z M-176.98046875 151.69921875 C-191.23037927 169.73798508 -199.28564977 189.97001542 -199.04296875 213.13671875 C-199.03845703 213.96365234 -199.03394531 214.79058594 -199.02929688 215.64257812 C-199.01762686 217.66149021 -198.99969593 219.68036449 -198.98046875 221.69921875 C-198.32046875 221.69921875 -197.66046875 221.69921875 -196.98046875 221.69921875 C-197.31046875 222.68921875 -197.64046875 223.67921875 -197.98046875 224.69921875 C-198.98919048 232.15535015 -199.13320163 239.63080144 -199.14160156 247.14306641 C-199.14656647 248.22927277 -199.15153137 249.31547913 -199.15664673 250.43460083 C-199.17113721 253.99416764 -199.17804838 257.5536899 -199.18359375 261.11328125 C-199.18642113 262.339687 -199.1892485 263.56609276 -199.19216156 264.82966232 C-199.20710101 271.32020021 -199.21636355 277.81071617 -199.22070312 284.30126953 C-199.22539339 290.96149522 -199.25020516 297.62148643 -199.27867508 304.28165627 C-199.29741366 309.44307012 -199.30251301 314.60443561 -199.304039 319.76588058 C-199.30704085 322.21916195 -199.31498445 324.67244298 -199.32822418 327.12569046 C-199.48152812 357.7150216 -193.97217658 383.45714359 -172.98046875 406.69921875 C-172.22121094 407.54097656 -171.46195313 408.38273437 -170.6796875 409.25 C-151.82168479 429.09565588 -125.8910383 440.02377909 -98.61668205 440.79424095 C-94.64525692 440.83594233 -90.67445794 440.84605593 -86.70288086 440.84448242 C-85.18220946 440.84748027 -83.66153881 440.85088423 -82.14086914 440.85466003 C-78.03507479 440.86344297 -73.92930133 440.8658358 -69.82349849 440.86647582 C-67.24935553 440.86718985 -64.67521778 440.86933086 -62.10107613 440.87197304 C-53.09480583 440.8812093 -44.08855027 440.88531029 -35.08227539 440.88452148 C-26.72995846 440.88392194 -18.37770637 440.89445397 -10.02540582 440.91026515 C-2.82074876 440.92341039 4.38388729 440.92870243 11.58855623 440.92806607 C15.87639841 440.92781303 20.16418295 440.93055573 24.45201302 440.94124413 C28.49291363 440.9510429 32.53370293 440.95092514 36.57460785 440.94372749 C38.04296726 440.94269593 39.51133404 440.94495749 40.97968102 440.95108795 C72.35526148 441.07341182 99.91052992 433.90786938 123.01953125 411.69921875 C123.79296875 410.97734375 124.56640625 410.25546875 125.36328125 409.51171875 C141.19603893 394.32962234 153.92616151 371.62748852 155.21149826 349.37591171 C155.29281453 345.4770429 155.31320786 341.5806106 155.31005859 337.68115234 C155.31605458 336.18841215 155.32286256 334.69567503 155.33041382 333.20294189 C155.34797548 329.17364582 155.35276511 325.14443486 155.35404539 321.1151042 C155.35547353 318.58920518 155.35975566 316.06332735 155.36503983 313.53743362 C155.38350996 304.70088596 155.39171452 295.86439836 155.39013672 287.02783203 C155.38893723 278.83105419 155.41000952 270.63454046 155.44162405 262.43782938 C155.46790562 255.36820931 155.47849902 248.29867486 155.4772259 241.22900641 C155.4767196 237.02104928 155.4822163 232.813327 155.503582 228.60541916 C155.52316525 224.64074397 155.52295426 220.67652278 155.50854874 216.71183014 C155.50648391 215.27045898 155.5110196 213.82905786 155.52326965 212.38773727 C155.64113672 197.53796179 152.4322286 184.12463192 146.01953125 170.69921875 C145.35824219 169.31476563 145.35824219 169.31476563 144.68359375 167.90234375 C141.01393579 160.72522265 136.36097169 154.71294393 131.01953125 148.69921875 C130.41625 148.01214844 129.81296875 147.32507813 129.19140625 146.6171875 C111.56021372 127.79780591 86.71925076 116.74692331 61.08501244 115.50925255 C56.63459235 115.40963548 52.18444119 115.41694126 47.7331543 115.42456055 C46.0330788 115.42020317 44.33300526 115.41501664 42.63293457 115.40907288 C38.05217519 115.39578132 33.47149882 115.39509318 28.89072394 115.39763618 C25.04925568 115.39871269 21.20780376 115.3938052 17.36633903 115.38903075 C8.29409944 115.37796943 -0.77809874 115.37747898 -9.8503418 115.38354492 C-19.17014051 115.38958114 -28.48978812 115.37727484 -37.80956107 115.35597485 C-45.84738375 115.33828876 -53.88515864 115.33236852 -61.92300004 115.3356126 C-66.70765849 115.33741458 -71.49220915 115.33489882 -76.27684975 115.32089806 C-80.78074773 115.30820971 -85.28441228 115.31036641 -89.78830719 115.32330894 C-91.42801942 115.3256506 -93.06774865 115.32302822 -94.70744133 115.31468582 C-126.60406789 115.16428061 -155.82445274 127.46532082 -176.98046875 151.69921875 Z " fill="#8A2DF2" transform="translate(635.98046875,177.30078125)"/>
<path d="M0 0 C7.8393777 0.18388664 7.8393777 0.18388664 10.90234375 2.45703125 C11.9813355 3.65115115 13.03911825 4.86468104 14.078125 6.09375 C24.00794753 16.12247514 37.41930329 17.26720003 50.66600323 17.36855888 C53.41539691 17.37804788 56.16465495 17.3773102 58.9140625 17.375 C60.8487965 17.37889368 62.78352965 17.38322972 64.71826172 17.38798523 C68.75946839 17.39541757 72.80058764 17.39517737 76.84179688 17.38989258 C81.99951878 17.38409396 87.15688204 17.40105309 92.31454468 17.42423725 C96.30560367 17.43902358 100.29657716 17.43983977 104.28765869 17.43672752 C106.18850415 17.43723801 108.08935473 17.44242404 109.99017334 17.45253944 C122.06074512 17.50891345 132.19968978 17.15104566 142.9765625 11.07421875 C144.32041016 10.33171875 144.32041016 10.33171875 145.69140625 9.57421875 C147.80013365 8.22687878 149.28863004 6.82987638 151.0390625 5.07421875 C151.6990625 5.07421875 152.3590625 5.07421875 153.0390625 5.07421875 C153.3690625 4.08421875 153.6990625 3.09421875 154.0390625 2.07421875 C160.29363043 -1.51982401 168.1463885 0.39216538 175.0390625 1.07421875 C176.19921875 1.18765625 177.359375 1.30109375 178.5546875 1.41796875 C193.30042498 3.27009037 206.067492 9.96304019 216.0390625 21.07421875 C216.49410156 21.51378906 216.94914062 21.95335937 217.41796875 22.40625 C231.32143794 36.74533703 232.57457752 57.58939776 232.48510742 76.39331055 C232.47647557 79.16462738 232.50567751 81.93395719 232.53710938 84.70507812 C232.53871898 86.48567647 232.53814847 88.26627844 232.53515625 90.046875 C232.54639023 90.86567642 232.55762421 91.68447784 232.56919861 92.52809143 C232.50450347 97.85201902 231.53222063 100.8335208 228.0390625 105.07421875 C220.48128851 112.29609167 214.19928955 113.52179323 204.14599609 113.45516968 C203.05872915 113.45984965 201.97146221 113.46452962 200.85124779 113.46935141 C197.21320726 113.48130371 193.57554324 113.47184293 189.9375 113.46240234 C187.32716655 113.46646792 184.71683482 113.47180972 182.10650635 113.47833252 C175.75566933 113.49165877 169.4049388 113.48879709 163.05409765 113.4800946 C157.89174877 113.47331408 152.72942969 113.47240292 147.56707764 113.47566605 C146.83180104 113.47612575 146.09652444 113.47658544 145.33896673 113.47705907 C143.84517558 113.47801827 142.35138443 113.47899091 140.8575933 113.47997685 C126.85670257 113.48852749 112.85587082 113.47870173 98.85498977 113.46257575 C86.84665636 113.44917285 74.83840996 113.45150104 62.83007812 113.46533203 C48.87862275 113.4813936 34.92721902 113.48770355 20.97575569 113.47849524 C19.48751959 113.47753961 17.99928348 113.4765965 16.51104736 113.47566605 C15.41274221 113.47497181 15.41274221 113.47497181 14.29224908 113.47426354 C9.13726394 113.47167538 3.98231161 113.47604089 -1.17266846 113.48310471 C-8.11332451 113.49240653 -15.05381356 113.48576549 -21.99445343 113.46842194 C-24.54258196 113.46445324 -27.09072431 113.46559765 -29.63884735 113.47220993 C-33.11537576 113.48040001 -36.59137637 113.47013371 -40.06787109 113.45516968 C-41.07769861 113.46186184 -42.08752613 113.46855401 -43.12795448 113.47544897 C-51.02937664 113.40942195 -57.17366763 111.86148862 -62.9609375 106.07421875 C-66.19140665 100.13189564 -66.41463415 94.99718026 -66.39453125 88.3125 C-66.3997731 87.28545456 -66.40501495 86.25840912 -66.41041565 85.20024109 C-66.41681918 83.03267314 -66.41552056 80.86507036 -66.40698242 78.69750977 C-66.39850851 75.41423102 -66.42720046 72.13271501 -66.45898438 68.84960938 C-66.52641639 48.67917671 -66.52641639 48.67917671 -61.9609375 39.07421875 C-61.57252686 38.17985107 -61.18411621 37.2854834 -60.78393555 36.36401367 C-54.39676184 21.98960294 -42.54993817 10.75146266 -27.9609375 5.07421875 C-18.83156905 2.15199961 -9.58248012 0.24019409 0 0 Z " fill="#050405" transform="translate(530.9609375,664.92578125)"/>
<path d="M0 0 C1.06185368 -0.00445668 1.06185368 -0.00445668 2.14515895 -0.0090034 C4.49983562 -0.01762362 6.85446106 -0.01919299 9.20915222 -0.02069092 C10.9050965 -0.02532408 12.60103975 -0.03034941 14.29698181 -0.03573608 C18.89473632 -0.04882007 23.49247624 -0.05529802 28.09024644 -0.05974674 C30.97042105 -0.06268589 33.85059176 -0.06679241 36.73076439 -0.07125092 C45.76390622 -0.08491961 54.79703903 -0.09458752 63.83019048 -0.09845281 C74.21584077 -0.10292247 84.60135873 -0.12042214 94.98696882 -0.1494534 C103.03998127 -0.17117285 111.09295679 -0.18116264 119.14599818 -0.18249393 C123.94311574 -0.18353527 128.74010881 -0.18929786 133.53719521 -0.20731354 C138.06070492 -0.22397111 142.58399896 -0.2258654 147.10752869 -0.21717453 C148.75285107 -0.21641332 150.3981859 -0.22062314 152.04347801 -0.23063278 C168.27869159 -0.32347858 183.71267702 1.35895881 198.63566589 8.14044189 C200.29275574 8.84427002 200.29275574 8.84427002 201.98332214 9.56231689 C212.16988006 14.20196672 220.28733475 20.77967791 228.63566589 28.14044189 C229.85963074 29.20971924 229.85963074 29.20971924 231.10832214 30.30059814 C245.48008488 43.75805391 256.87559679 66.29004999 257.76988697 86.11606312 C257.77629719 87.78145146 257.77629719 87.78145146 257.78283691 89.48048401 C257.79356987 91.39977974 257.79356987 91.39977974 257.80451965 93.35784912 C257.80735967 94.76885962 257.81007143 96.17987038 257.81266785 97.59088135 C257.81893742 99.08288225 257.82558466 100.5748816 257.83258057 102.06687927 C257.85357869 106.96248293 257.86398451 111.85808673 257.87394714 116.75372314 C257.87799741 118.44509586 257.88211441 120.13646841 257.88629723 121.82784081 C257.90534592 129.78243181 257.9195731 137.73701361 257.9279092 145.69162303 C257.93765644 154.83955454 257.96391128 163.98724246 258.00441009 173.13508826 C258.03471118 180.2258283 258.04939156 187.31649911 258.05269021 194.40730256 C258.05502634 198.6321169 258.06379618 202.85667097 258.08915138 207.08141518 C258.11268103 211.06652303 258.11656719 215.05120391 258.10639 219.0363636 C258.10590037 220.48580101 258.11204786 221.93526125 258.12594604 223.38463211 C258.2460583 236.67231034 255.94372171 249.42450124 250.26066589 261.51544189 C249.95886414 262.17697266 249.65706238 262.83850342 249.34611511 263.52008057 C239.42896388 284.85785027 223.18775721 301.91277029 202.63566589 313.14044189 C202.01965515 313.48333252 201.40364441 313.82622314 200.76896667 314.17950439 C182.61838766 324.09134975 162.51892942 325.2937539 142.21281433 325.28570557 C140.68875039 325.28870419 139.16468721 325.29210832 137.640625 325.29588318 C133.53089205 325.30465578 129.42117997 325.30705843 125.31143856 325.30769897 C122.73546321 325.3084133 120.15949304 325.31055483 117.58351898 325.31319618 C108.57306587 325.32242727 99.56262748 325.32653387 90.5521698 325.32574463 C82.19127173 325.32514443 73.8304383 325.33569078 65.46955657 325.35148829 C58.25896586 325.3646204 51.04839614 325.36992616 43.83779359 325.36928922 C39.54555878 325.3690359 35.2533815 325.37179453 30.96115875 325.38246727 C26.91943029 325.39224435 22.87781325 325.39216261 18.83608055 325.38495064 C17.36526766 325.38391662 15.89444747 325.38619592 14.42364693 325.3923111 C-15.88797005 325.51002795 -43.62776779 317.22225304 -65.68855286 295.81622314 C-79.83961201 281.66516399 -90.4424081 264.98921374 -94.36433411 245.14044189 C-94.526536 244.37576599 -94.68873789 243.61109009 -94.85585499 242.82324219 C-96.2192038 236.01271706 -96.64586534 229.53522391 -96.60725403 222.60137939 C-96.60915237 221.50553528 -96.61105072 220.40969116 -96.61300659 219.28063965 C-96.61668273 215.69216539 -96.60605411 212.10389788 -96.59480286 208.51544189 C-96.593609 206.0016075 -96.59315833 203.48777265 -96.59341431 200.97393799 C-96.59185482 195.71886854 -96.58385406 190.46385123 -96.57014465 185.20880127 C-96.55442361 179.16088333 -96.54914684 173.11302899 -96.54988021 167.06509209 C-96.55049378 161.21155789 -96.54524811 155.35804474 -96.53708839 149.5045166 C-96.53392074 147.02954226 -96.5319388 144.5545661 -96.53119469 142.07958984 C-96.5290108 138.61286325 -96.52022277 135.14621414 -96.50959778 131.67950439 C-96.51005096 130.67034973 -96.51050415 129.66119507 -96.51097107 128.62145996 C-96.43862341 112.36330981 -96.43862341 112.36330981 -94.36433411 106.14044189 C-95.02433411 106.14044189 -95.68433411 106.14044189 -96.36433411 106.14044189 C-97.55951998 78.65116672 -90.62547494 54.44623968 -71.86433411 33.82794189 C-53.21886202 13.96157885 -27.72452828 0.06541802 0 0 Z M-23.17683411 46.20294189 C-23.92892151 46.41700684 -24.68100891 46.63107178 -25.45588684 46.85162354 C-41.60408694 51.72230641 -55.18781997 60.63252171 -67.36433411 72.14044189 C-68.00499817 72.72825439 -68.64566223 73.31606689 -69.30574036 73.92169189 C-81.70214186 85.68024723 -88.83563556 100.71049165 -89.45935631 117.73391533 C-89.5004703 120.61519236 -89.51089258 123.49495541 -89.50959778 126.37652588 C-89.51295639 127.46393066 -89.516315 128.55133545 -89.51977539 129.67169189 C-89.52922451 133.2433183 -89.53122528 136.81489754 -89.53230286 140.38653564 C-89.535519 142.88320433 -89.53888334 145.37987284 -89.54238892 147.87654114 C-89.54836462 153.10066159 -89.55023035 158.32476553 -89.54963684 163.54888916 C-89.5491025 168.89983083 -89.55615546 174.25070038 -89.57014465 179.60162354 C-89.58684441 186.08294674 -89.59369155 192.56420523 -89.59302711 199.04554939 C-89.59420355 201.50739979 -89.59860635 203.96925093 -89.60635948 206.4310894 C-89.61620435 209.87912232 -89.61326378 213.32692643 -89.60725403 216.77496338 C-89.61287354 217.78150467 -89.61849304 218.78804596 -89.62428284 219.8250885 C-89.5554997 235.42886844 -84.94893929 250.44965871 -74.36433411 262.14044189 C-73.67339661 262.94868408 -72.98245911 263.75692627 -72.27058411 264.58966064 C-55.18327891 284.23404497 -35.09845081 295.46085278 -9.36433411 299.14044189 C-6.89584334 299.23342516 -4.42517567 299.27520385 -1.9549408 299.28088379 C-1.23014743 299.28385491 -0.50535406 299.28682603 0.24140275 299.28988719 C2.65913124 299.29852712 5.07680993 299.30007847 7.49455261 299.30157471 C9.23300277 299.30620644 10.97145192 299.31123158 12.7098999 299.31661987 C17.42741023 299.32971694 22.14490634 299.33618428 26.862432 299.34063053 C29.81578733 299.34356733 32.76913883 299.3476734 35.72249222 299.3521347 C44.97988646 299.36580633 54.23727188 299.37547302 63.49467552 299.3793366 C74.14806679 299.38380812 84.80132917 299.40131524 95.45468128 299.43033719 C103.70891447 299.4520351 111.96311163 299.46204529 120.21737301 299.46337771 C125.13740129 299.46442051 130.05730836 299.47021485 134.97730637 299.48819733 C139.6148829 299.50481742 144.25224897 299.50676676 148.88984489 299.49805832 C150.5795454 299.49729517 152.26925787 299.50153359 153.95892906 299.51151657 C168.10277508 299.59008917 181.80013849 298.33582316 195.01066589 292.82794189 C195.76613708 292.52162842 196.52160828 292.21531494 197.29997253 291.89971924 C218.5978389 283.05062189 237.47419178 265.19597164 246.57316589 243.85528564 C252.49068878 228.73514445 251.79789476 213.27695604 251.80363464 197.27716064 C251.80685505 195.15548175 251.81021969 193.03380308 251.8137207 190.91212463 C251.81968214 186.48016852 251.82156365 182.04823181 251.82096863 177.61627197 C251.82086709 171.9749144 251.83452453 166.3336829 251.85174084 160.69235516 C251.86293118 156.31422875 251.8648857 151.93613217 251.8643589 147.55799294 C251.86552824 145.47986224 251.86989018 143.4017305 251.87769127 141.32361412 C251.96310055 116.22710954 249.70259356 94.88453468 232.63566589 75.14044189 C232.08136902 74.44177002 231.52707214 73.74309814 230.95597839 73.02325439 C226.28936004 67.28487681 220.78032667 63.20688185 214.63566589 59.14044189 C213.71914246 58.53071533 212.80261902 57.92098877 211.85832214 57.29278564 C206.26501824 53.80176606 200.56235347 51.13895428 194.38566589 48.89044189 C193.44086365 48.53925293 193.44086365 48.53925293 192.47697449 48.18096924 C179.31382126 43.6570474 166.099153 42.69804434 152.32829285 42.78399658 C150.66231682 42.78320321 148.99634099 42.78109833 147.33036804 42.77780151 C142.85735396 42.77272336 138.38457496 42.78608924 133.91159844 42.80332851 C129.20253646 42.81851221 124.49347567 42.81719393 119.78439331 42.81799316 C111.88411009 42.82167018 103.98391457 42.83655899 96.08366394 42.85919189 C85.97618926 42.88809114 75.8687849 42.89842169 65.76127338 42.90287399 C57.02404235 42.90686877 48.28682627 42.91936382 39.54960608 42.93322086 C36.76294282 42.93729643 33.97628007 42.94023377 31.18961525 42.94301605 C26.79572903 42.94795101 22.40188412 42.95822361 18.00801849 42.97245407 C16.40574963 42.97693138 14.80347526 42.97980473 13.20120049 42.98086166 C-5.18303792 42.88410606 -5.18303792 42.88410606 -23.17683411 46.20294189 Z " fill="#050506" transform="translate(533.3643341064453,292.85955810546875)"/>
<path d="M0 0 C1.65579871 -0.00628179 3.31159606 -0.01293003 4.96739197 -0.01991272 C10.3569952 -0.04074603 15.74659807 -0.0512933 21.13623047 -0.0612793 C23.00585824 -0.06533417 24.87548587 -0.06945129 26.74511337 -0.07362938 C35.53208966 -0.09263296 44.31905778 -0.10687577 53.10605061 -0.11524135 C63.18999964 -0.12500543 73.27372871 -0.15132384 83.35760033 -0.19174224 C91.19334047 -0.22205397 99.02901804 -0.23672426 106.86481559 -0.24002236 C111.52610792 -0.24235493 116.18716397 -0.25107925 120.84839249 -0.27648354 C148.23686049 -0.41797014 175.72528747 -0.19782992 199.12841797 16.17700195 C200.15451172 16.88469727 201.18060547 17.59239258 202.23779297 18.3215332 C216.96134889 28.84830973 227.69951614 42.81500674 233.12841797 60.17700195 C233.34369141 60.86536133 233.55896484 61.5537207 233.78076172 62.26293945 C237.25302425 74.68198061 236.29181278 88.14336831 236.29638672 100.9074707 C236.29960668 103.0281832 236.30297129 105.14889549 236.30647278 107.26960754 C236.31243858 111.70334385 236.31431533 116.13706075 236.3137207 120.57080078 C236.31361929 126.21096768 236.32726193 131.85100812 236.34449291 137.49114513 C236.35569268 141.86931412 236.35763747 146.24745331 236.35711098 150.62563515 C236.35827947 152.70293933 236.36263653 154.78024457 236.37044334 156.85753441 C236.47946042 188.86262408 236.47946042 188.86262408 231.06591797 200.92700195 C230.76065186 201.63179687 230.45538574 202.3365918 230.14086914 203.06274414 C227.06211699 209.84881734 222.99146789 215.53890345 218.12841797 221.17700195 C217.68369141 221.70777344 217.23896484 222.23854492 216.78076172 222.78540039 C200.66778213 241.91675847 179.04001092 253.24640842 154.12841797 256.17700195 C148.28041645 256.45959098 142.44208243 256.4614234 136.58837891 256.45166016 C134.84904259 256.45601612 133.10970819 256.46120218 131.37037659 256.46714783 C126.67799187 256.48045566 121.98568811 256.48112559 117.29328823 256.47858453 C113.35991315 256.47750897 109.42655405 256.48241317 105.49318242 256.48718995 C96.20377593 256.49825726 86.91440988 256.49873855 77.625 256.49267578 C68.07971274 256.48664123 58.53457307 256.49894026 48.98931098 256.52024585 C40.76042746 256.5379298 32.53159063 256.54385245 24.30268884 256.54060811 C19.40288031 256.53880553 14.50317704 256.54132784 9.60338593 256.55532265 C4.99033985 256.56800713 0.37752174 256.56585781 -4.23552132 256.55291176 C-5.91554661 256.55056915 -7.59558848 256.55319605 -9.27559471 256.56153488 C-38.25974787 256.6948742 -61.95498487 247.62557619 -82.99658203 227.36450195 C-98.02986454 211.85397239 -105.21758933 195.44206439 -105.13037109 173.85913086 C-105.13387573 172.77479263 -105.13738037 171.69045441 -105.14099121 170.57325745 C-105.14973717 167.01662646 -105.14398375 163.46019719 -105.13720703 159.90356445 C-105.13855592 157.41311607 -105.14049833 154.92266795 -105.14300537 152.43222046 C-105.14594715 147.22244754 -105.14169014 142.01274341 -105.13232422 136.80297852 C-105.12094222 130.15010007 -105.1274873 123.49745062 -105.13946915 116.84456825 C-105.14672343 111.70393677 -105.14438325 106.56334309 -105.13921356 101.42271042 C-105.13788631 98.97088985 -105.13949212 96.51906576 -105.14417267 94.0672493 C-105.1492954 90.6292955 -105.14144688 87.19159707 -105.13037109 83.75366211 C-105.13441956 82.75588242 -105.13846802 81.75810272 -105.14263916 80.73008728 C-105.01492532 59.15226461 -97.33426691 43.35800241 -82.37158203 28.23950195 C-69.87584074 16.03473757 -54.63717597 7.95633416 -37.87158203 3.17700195 C-37.19224609 2.96430664 -36.51291016 2.75161133 -35.81298828 2.5324707 C-24.3757416 -0.77267959 -11.80725948 0.01994429 0 0 Z M-73.37939453 49.93481445 C-84.60759881 64.14615788 -83.48110447 80.15718898 -83.43798828 97.36450195 C-83.44323138 99.91552964 -83.44951036 102.46655539 -83.45677185 105.01757812 C-83.46714246 110.34653906 -83.46299684 115.67522222 -83.44799805 121.00415039 C-83.43107531 127.13070794 -83.44693374 133.25655296 -83.47922093 139.3830328 C-83.50930753 145.32096405 -83.511067 151.25867693 -83.50172234 157.19668579 C-83.5009067 159.70351081 -83.50769524 162.21035109 -83.52249336 164.71713257 C-83.6148934 183.19799383 -82.57955956 198.15193337 -68.99658203 212.1027832 C-61.27095886 219.12749298 -52.52559648 225.18327819 -42.87158203 229.17700195 C-42.28014719 229.42356411 -41.68871235 229.67012627 -41.07935524 229.92416 C-23.06158059 237.05102038 -4.15887672 236.03025639 14.86644769 235.91709185 C19.6368086 235.8941497 24.40713563 235.90270118 29.17753601 235.90658569 C37.17668864 235.90834106 45.17549887 235.88640642 53.17456055 235.84936523 C62.38100026 235.80697327 71.58694066 235.80003191 80.79345828 235.81248915 C89.71184552 235.82393164 98.63005961 235.81252517 107.54842186 235.79014206 C111.3171533 235.78093016 115.08577745 235.77906706 118.85451698 235.78331375 C123.29955031 235.78711941 127.74408523 235.77057157 132.1890049 235.73919296 C133.80612626 235.73081006 135.42329871 235.72893551 137.04043198 235.73457336 C150.79037743 235.77519122 164.2152044 234.05174811 176.50341797 227.36450195 C177.16204834 227.0197583 177.82067871 226.67501465 178.49926758 226.31982422 C187.10151924 221.72303222 194.53414686 216.38311264 201.12841797 209.17700195 C201.97404297 208.33137695 202.81966797 207.48575195 203.69091797 206.61450195 C215.78701757 191.59451072 214.46337232 171.32577694 214.49951172 153.2746582 C214.50849395 150.94640551 214.51761604 148.61815336 214.52687073 146.28990173 C214.54329472 141.42583826 214.55104927 136.5618431 214.55395508 131.69775391 C214.55934386 125.4932301 214.597074 119.2893557 214.64269924 113.0850153 C214.67256453 108.28146563 214.67968064 103.47807097 214.68068123 98.67443657 C214.68486163 96.38808646 214.69720721 94.10173494 214.71819878 91.81547737 C214.88540503 72.03836392 211.99342088 58.26415293 197.94091797 43.55200195 C192.86190515 38.51126222 187.35378349 34.67396654 181.12841797 31.17700195 C180.49935547 30.7902832 179.87029297 30.40356445 179.22216797 30.00512695 C166.83325344 22.94127218 152.368108 22.58837165 138.53588867 22.65942383 C136.73197875 22.65398827 134.92807328 22.64685766 133.12417603 22.63818359 C128.2751186 22.62012148 123.42640581 22.62694512 118.57734323 22.63969994 C113.4758852 22.64991252 108.37445433 22.64041198 103.272995 22.63415527 C94.71360031 22.62690469 86.15434428 22.63640032 77.5949707 22.65551758 C67.72797599 22.67730219 57.86131176 22.6702129 47.99432498 22.64821196 C39.48683465 22.63000882 30.97944327 22.62752296 22.47193974 22.63796663 C17.40627486 22.64417194 12.34076491 22.64511898 7.27511024 22.63182068 C2.51338106 22.62019017 -2.24792529 22.62841821 -7.00960922 22.65139771 C-8.7473296 22.65664568 -10.48508612 22.65523889 -12.22279167 22.64634705 C-36.56484118 22.53335573 -57.01517748 31.93927359 -73.37939453 49.93481445 Z " fill="#8A2CF0" transform="translate(548.87158203125,335.822998046875)"/>
<path d="M0 0 C11.405625 -0.061875 22.81125 -0.12375 34.5625 -0.1875 C38.13263916 -0.21481201 41.70277832 -0.24212402 45.38110352 -0.27026367 C49.82019043 -0.28381348 49.82019043 -0.28381348 51.91368103 -0.28633118 C53.34221724 -0.29086754 54.77074372 -0.30126761 56.19920349 -0.31672668 C71.57596544 -0.47447559 87.72067443 0.57781848 100 11 C100 11.66 100 12.32 100 13 C100.66 13 101.32 13 102 13 C111.70696075 24.43744958 112.93095821 38.55635573 112 53 C110.45343777 65.01862344 105.59309906 75.350066 96 83 C81.90888032 92.47559024 63.02067881 91.14793752 46.8125 91.0625 C41.264375 91.041875 35.71625 91.02125 30 91 C30 106.51 30 122.02 30 138 C20.1 138 10.2 138 0 138 C0 92.46 0 46.92 0 0 Z " fill="#892CF2" transform="translate(604,842)"/>
<path d="M0 0 C1.47583955 0.0001591 2.95168467 0.00585225 4.42749023 0.01586914 C5.20293686 0.01728409 5.97838348 0.01869904 6.77732849 0.02015686 C9.26361893 0.02577194 11.74982059 0.03832693 14.23608398 0.05102539 C15.91772331 0.05603845 17.59936405 0.06060169 19.28100586 0.06469727 C23.41189965 0.07574626 27.54272674 0.09302094 31.67358398 0.11352539 C33.43957924 4.78358773 35.16296349 9.45528946 36.76733398 14.18383789 C37.34342407 15.87271118 37.34342407 15.87271118 37.93115234 17.59570312 C38.54615601 19.39890015 38.54615601 19.39890015 39.17358398 21.23852539 C42.53487772 31.05484558 46.00350217 40.82192789 49.61108398 50.55102539 C54.61744144 64.09022521 59.46105419 77.68604867 64.26687622 91.29763794 C65.11122498 93.68790547 65.95711399 96.07762957 66.80465698 98.46676636 C71.46001152 111.5967597 75.9024024 124.70063865 79.67358398 138.11352539 C69.77358398 138.11352539 59.87358398 138.11352539 49.67358398 138.11352539 C48.18858398 133.86477539 46.70358398 129.61602539 45.17358398 125.23852539 C44.46878906 123.22976318 44.46878906 123.22976318 43.74975586 121.18041992 C43.38430664 120.12967285 43.01885742 119.07892578 42.64233398 117.99633789 C42.2652832 116.91755371 41.88823242 115.83876953 41.49975586 114.72729492 C40.67358398 112.11352539 40.67358398 112.11352539 40.67358398 110.11352539 C22.85358398 110.11352539 5.03358398 110.11352539 -13.32641602 110.11352539 C-13.98641602 113.08352539 -14.64641602 116.05352539 -15.32641602 119.11352539 C-15.78593116 120.71660162 -16.26970155 122.31339176 -16.79907227 123.89477539 C-17.05881836 124.67336914 -17.31856445 125.45196289 -17.58618164 126.25415039 C-17.85108398 127.03274414 -18.11598633 127.81133789 -18.38891602 128.61352539 C-18.65768555 129.42305664 -18.92645508 130.23258789 -19.20336914 131.06665039 C-21.19256646 136.97967583 -21.19256646 136.97967583 -22.32641602 138.11352539 C-24.61793019 138.20143514 -26.91214126 138.22046577 -29.20532227 138.21118164 C-30.23531593 138.20905922 -30.23531593 138.20905922 -31.28611755 138.20689392 C-33.48709403 138.20128018 -35.6879701 138.18872546 -37.88891602 138.17602539 C-39.37784684 138.17101216 -40.86677926 138.16644894 -42.35571289 138.16235352 C-46.01264676 138.15130632 -49.6695216 138.13403252 -53.32641602 138.11352539 C-45.62685581 115.3512474 -37.45654181 92.76476921 -29.25276184 70.18029785 C-26.59160934 62.8522848 -23.95427255 55.51604615 -21.32641602 48.17602539 C-18.11768749 39.22305869 -14.80345339 30.3120813 -11.41821289 21.42431641 C-9.16513944 15.4785311 -7.09795714 9.49648948 -5.15185547 3.44287109 C-3.897254 -0.09754671 -3.97506745 0.13566285 0 0 Z " fill="#892CF1" transform="translate(504.326416015625,841.886474609375)"/>
<path d="M0 0 C7.18570369 7.99099807 10.74512047 17.78620962 10.265625 28.51953125 C9.265625 29.51953125 9.265625 29.51953125 6.76538086 29.63305664 C5.68135986 29.62781982 4.59733887 29.62258301 3.48046875 29.6171875 C1.72573242 29.61235352 1.72573242 29.61235352 -0.06445312 29.60742188 C-1.29615234 29.59904297 -2.52785156 29.59066406 -3.796875 29.58203125 C-5.65022461 29.57526367 -5.65022461 29.57526367 -7.54101562 29.56835938 C-10.60551617 29.55652733 -13.66992221 29.54004298 -16.734375 29.51953125 C-17.12294678 28.64949463 -17.51151855 27.77945801 -17.91186523 26.88305664 C-21.50425603 18.96941169 -24.28517472 14.63740854 -32.55859375 11.421875 C-40.74479408 9.09590664 -50.09624207 9.65086652 -57.734375 13.51953125 C-61.02886255 16.05375244 -62.84793084 18.44188813 -63.734375 22.51953125 C-63.71141426 27.08871875 -63.22007856 30.99498577 -59.94140625 34.359375 C-49.65757935 41.51255017 -37.69370467 43.80669525 -25.63476562 46.23046875 C-13.32250126 48.8108419 -1.15661778 53.32601801 6.984375 63.45703125 C9.49688941 67.50156664 10.90972604 71.97900808 12.265625 76.51953125 C12.46027344 77.16535156 12.65492188 77.81117188 12.85546875 78.4765625 C15.15555751 89.93319509 12.77219332 102.59040247 6.68359375 112.5 C-0.3357045 122.49718235 -11.04464321 127.70270285 -22.734375 130.45703125 C-42.99473797 133.85840605 -63.95034851 132.53155361 -81.359375 120.95703125 C-88.95626971 115.26735134 -94.20234169 107.10727447 -96.359375 97.83203125 C-96.85874301 93.42094716 -96.734375 88.95879146 -96.734375 84.51953125 C-88.154375 84.51953125 -79.574375 84.51953125 -70.734375 84.51953125 C-69.084375 88.47953125 -67.434375 92.43953125 -65.734375 96.51953125 C-60.52472211 102.32119015 -54.57196897 104.19173676 -46.984375 104.83984375 C-37.92169736 105.21582534 -29.21726061 104.64505532 -21.73046875 99.01171875 C-18.60434501 95.8928482 -17.36339243 93.32153024 -17.171875 88.89453125 C-17.55370348 83.78323643 -19.16562226 80.91038419 -23.0078125 77.50390625 C-29.7029149 72.63125292 -38.77438381 71.48455833 -46.7487793 69.76269531 C-58.41711949 67.24121052 -69.07348061 64.00599153 -79.734375 58.51953125 C-79.734375 57.85953125 -79.734375 57.19953125 -79.734375 56.51953125 C-80.32089844 56.26558594 -80.90742187 56.01164063 -81.51171875 55.75 C-87.71935604 52.31343454 -91.44582936 46.02381887 -93.734375 39.51953125 C-94.12625 38.57078125 -94.518125 37.62203125 -94.921875 36.64453125 C-97.73948895 25.80755451 -94.61021416 14.98185905 -89.4921875 5.3515625 C-82.21700124 -6.36957091 -71.15839351 -10.60637719 -58.25390625 -13.6953125 C-37.77635064 -18.26355742 -15.54806917 -14.74132973 0 0 Z " fill="#892CF1" transform="translate(882.734375,852.48046875)"/>
<path d="M0 0 C9.9 0 19.8 0 30 0 C31 1 31 1 31.12304783 2.87219334 C31.12166514 4.10970042 31.12166514 4.10970042 31.12025452 5.37220764 C31.12162918 6.31596756 31.12300385 7.25972748 31.12442017 8.23208618 C31.12082489 9.27577362 31.11722961 10.31946106 31.11352539 11.39477539 C31.11367142 12.48732132 31.11381744 13.57986725 31.1139679 14.70552063 C31.11326822 18.33625233 31.10547329 21.96693346 31.09765625 25.59765625 C31.09579226 28.10729443 31.09436827 30.61693298 31.09336853 33.12657166 C31.08993348 39.06934593 31.08204273 45.01210384 31.07201904 50.95486969 C31.0578058 59.56775004 31.05254739 68.18063657 31.04621124 76.7935257 C31.03649856 88.86236563 31.01734306 100.93115774 31 113 C53.77 113 76.54 113 100 113 C100 121.25 100 129.5 100 138 C67 138 34 138 0 138 C0 92.46 0 46.92 0 0 Z " fill="#892CF1" transform="translate(337,842)"/>
<path d="M0 0 C5.12228462 3.0576099 6.53730563 6.8188236 8.4375 12.1875 C8.73043945 12.97688965 9.02337891 13.7662793 9.32519531 14.57958984 C10.23481681 17.04695042 11.12041356 19.52178847 12 22 C12.42079834 23.1753833 12.42079834 23.1753833 12.85009766 24.37451172 C14.35783226 28.59099719 15.83951499 32.81573766 17.30273438 37.04785156 C18.05347534 39.14971596 18.86198983 41.22497067 19.671875 43.3046875 C21 47 21 47 21 50 C21.66 50 22.32 50 23 50 C23.0825 48.906875 23.165 47.81375 23.25 46.6875 C24.18140818 39.31494507 26.56133131 31.2687103 32 26 C34.828349 24.32165126 36.88382755 23.75043712 40.16015625 23.76953125 C41.34291138 23.77098145 41.34291138 23.77098145 42.54956055 23.77246094 C43.37883057 23.78567383 44.20810059 23.79888672 45.0625 23.8125 C45.91432861 23.8218457 46.76615723 23.83119141 47.64379883 23.84082031 C50.09657937 23.87720964 52.5478697 23.93348557 55 24 C56.12664062 24.02964844 57.25328125 24.05929687 58.4140625 24.08984375 C64.10670902 24.41857404 69.4162976 25.38128758 74 29 C76.38233529 32.78049273 76.7277631 36.63342143 76 41 C74.20636089 43.8100346 72.98119065 45.50940468 70 47 C60.35075616 47.82324898 50.56064909 46.17798977 41 45 C40.59240313 46.35805947 40.18486482 47.71613653 39.77734375 49.07421875 C39.5026123 49.98864746 39.22788086 50.90307617 38.94482422 51.84521484 C38.28441893 54.05032003 37.62747203 56.25646261 36.97314453 58.46337891 C36.04029326 61.60160546 35.09830894 64.73683417 34.14819336 67.86987305 C33.7554043 69.17267528 33.36677714 70.47673907 32.98217773 71.78198242 C32.41684679 73.69770675 31.83555047 75.60869668 31.25390625 77.51953125 C30.74839233 79.20719604 30.74839233 79.20719604 30.23266602 80.92895508 C28.91711578 84.20649645 27.39023303 86.41485021 25 89 C21.49896244 90.38510234 17.93205842 90.12709888 14.25 89.625 C11.72376569 87.80049744 11.29114368 86.7935344 10.09765625 83.98046875 C9.75138184 83.16964844 9.40510742 82.35882813 9.04833984 81.5234375 C8.7023877 80.69070313 8.35643555 79.85796875 8 79 C7.68369629 78.24460937 7.36739258 77.48921875 7.04150391 76.7109375 C6.07501412 74.37563198 5.12745606 72.03360763 4.1875 69.6875 C3.84783203 68.84026367 3.50816406 67.99302734 3.15820312 67.12011719 C-0.51785816 57.84812217 -3.786263 48.44035243 -7 39 C-9.11901142 41.11901142 -9.68256698 42.49714643 -10.75 45.25 C-12.77545219 49.95329723 -15.10706255 52.68686174 -19 56 C-28.48611811 59.16203937 -42.8632547 57.61765726 -52 54 C-54.26764164 51.72483716 -55.71221301 50.04794158 -56.56640625 46.9375 C-56.55822504 42.87962207 -56.33640835 41.4182374 -53.6875 38.125 C-49.92526127 35.15020659 -47.9561263 33.74649736 -43.18359375 33.76953125 C-42.25482422 33.77146484 -41.32605469 33.77339844 -40.36914062 33.77539062 C-39.40169922 33.78763672 -38.43425781 33.79988281 -37.4375 33.8125 C-36.46619141 33.81314453 -35.49488281 33.81378906 -34.49414062 33.81445312 C-27.28086515 33.85956743 -27.28086515 33.85956743 -25 35 C-24.72800781 34.16984375 -24.45601562 33.3396875 -24.17578125 32.484375 C-12.23750897 -2.89415948 -12.23750897 -2.89415948 0 0 Z " fill="#8A2DF1" transform="translate(603,425)"/>
<path d="M0 0 C9.9 0 19.8 0 30 0 C30 45.54 30 91.08 30 138 C20.1 138 10.2 138 0 138 C0 92.46 0 46.92 0 0 Z " fill="#8B2CF3" transform="translate(734,842)"/>
<path d="M0 0 C2.95365832 1.83484835 5.41785273 3.83570547 7 7 C7.5122901 13.14748115 7.04639036 16.07871443 3 21 C1.34614781 22.67938336 -0.32253842 24.34419862 -2 26 C-3.96041964 27.93540307 -5.91822041 29.87341738 -7.875 31.8125 C-8.36613281 32.29525391 -8.85726562 32.77800781 -9.36328125 33.27539062 C-12.12201824 36.01621374 -14.73233201 38.82339009 -17.2578125 41.78125 C-19.98868871 44.94115628 -22.86340485 47.86810542 -25.875 50.76171875 C-26.71417969 51.57060547 -27.55335938 52.37949219 -28.41796875 53.21289062 C-30.16149147 54.88387647 -31.91437404 56.54514281 -33.67578125 58.19726562 C-34.50464844 59.00228516 -35.33351563 59.80730469 -36.1875 60.63671875 C-37.32251953 61.71505981 -37.32251953 61.71505981 -38.48046875 62.81518555 C-40.25463374 64.90626946 -40.25463374 64.90626946 -39.93408203 67.5546875 C-38.91635444 70.21897385 -37.92093143 71.53147678 -35.8671875 73.48828125 C-35.22523438 74.11283203 -34.58328125 74.73738281 -33.921875 75.38085938 C-33.24640625 76.01830078 -32.5709375 76.65574219 -31.875 77.3125 C-27.29623516 81.70576152 -22.92237814 86.14326306 -18.78613281 90.95776367 C-14.9671314 95.32435017 -10.89551114 99.46603951 -6.87304688 103.64453125 C4.26917255 115.35402986 4.26917255 115.35402986 5.76171875 120.7578125 C5.62607144 125.0842476 5.39992939 128.10833416 2.625 131.5625 C-1.23576937 135.14750013 -3.5888854 135.37182421 -8.703125 135.2578125 C-14.70900192 134.58368346 -17.56671359 130.45871147 -21.1875 126.0625 C-22.37024624 124.57164339 -23.55286653 123.0806821 -24.73193359 121.58691406 C-26.93687733 118.82755051 -29.21666592 116.13208081 -31.5 113.4375 C-31.96188721 112.89230713 -32.42377441 112.34711426 -32.8996582 111.78540039 C-39.91393977 103.54106207 -47.00053929 95.43944275 -55.20703125 88.35546875 C-68.91118174 76.16682918 -68.91118174 76.16682918 -69.37963867 68.3371582 C-69.18595164 62.31595676 -68.3377466 58.34604057 -64 54 C-63.34 54 -62.68 54 -62 54 C-61.79375 53.46890625 -61.5875 52.9378125 -61.375 52.390625 C-59.42038808 48.99226564 -56.77876283 46.48944072 -54 43.75 C-53.18015625 42.91855469 -53.18015625 42.91855469 -52.34375 42.0703125 C-48.2533867 38 -48.2533867 38 -46 38 C-45.67 37.01 -45.34 36.02 -45 35 C-44.34 35 -43.68 35 -43 35 C-42.72414063 34.40832031 -42.44828125 33.81664062 -42.1640625 33.20703125 C-39.56904509 28.28694791 -35.66222014 24.47443466 -31.375 21 C-26.6470854 17.04343423 -23.08744505 12.20375009 -19.47607422 7.2421875 C-14.46892701 0.62674528 -8.32081777 -2.81290803 0 0 Z " fill="#8A2CF1" transform="translate(563,397)"/>
<path d="M0 0 C4.16258159 2.01563494 6.54787648 4.56939427 9.375 8.1875 C13.13226016 12.91197564 16.98397251 17.49506482 21 22 C21.67546875 22.76828125 22.3509375 23.5365625 23.046875 24.328125 C27.10505026 28.90436518 31.27431769 33.32638604 35.625 37.625 C39.35268577 41.31639397 42.95606261 45.02794355 46.296875 49.07421875 C47.9959495 51.08339763 47.9959495 51.08339763 50.203125 52.89453125 C54.0598388 56.42086222 56.14556679 59.07869286 56.50390625 64.3515625 C56.58203086 68.58927063 56.34903181 72.77768464 56 77 C55.071875 77.37125 55.071875 77.37125 54.125 77.75 C51.55377016 79.26248814 51.25294515 80.33866914 50 83 C45.80441944 88.0924054 41.32444048 93.0212996 36.25 97.25 C26.01036676 105.89033961 17.32936897 116.56258086 9 127 C1.89391304 135.65565217 1.89391304 135.65565217 -2.234375 136.40625 C-7.15921051 136.58978424 -10.21561955 136.39046788 -14.0625 133.125 C-17.09766255 130.1683946 -17.94321563 128.67005561 -18.3125 124.3125 C-18.22303099 119.80651507 -16.83828564 116.48226641 -14 113 C-12.08519165 111.18072439 -10.09994968 109.48994448 -8.06640625 107.8046875 C-5.39722402 105.47356804 -3.20056048 102.86687162 -0.9140625 100.16796875 C1.29225484 97.66897667 3.62683693 95.34089953 6 93 C8.92814722 90.11142234 11.73282263 87.21377984 14.375 84.0625 C19.07980902 78.54143495 24.6002789 73.82339619 30 69 C28.58713262 64.50451287 26.42262841 62.18641885 23 59 C21.96773235 57.98674956 20.93924637 56.96963581 19.9140625 55.94921875 C19.11282959 55.15572021 19.11282959 55.15572021 18.29541016 54.34619141 C9.92160025 46.0311279 9.92160025 46.0311279 6.625 42.125 C2.51881089 37.25994556 -2.10224611 32.87880853 -6.67138672 28.45361328 C-15.39761329 19.8886103 -15.39761329 19.8886103 -16.49609375 14.62109375 C-16.37148736 9.97742897 -16.13795572 6.67898256 -13 3 C-9.07100875 -0.25544989 -4.94515283 -0.95531361 0 0 Z " fill="#8A2DF2" transform="translate(677,396)"/>
<path d="M0 0 C1.25963011 0.00138269 1.25963011 0.00138269 2.5447073 0.00279331 C3.50529552 0.00141865 4.46588375 0.00004398 5.45558071 -0.00137234 C6.51796963 0.00222294 7.58035854 0.00581821 8.67494106 0.00952244 C10.34302067 0.0093034 10.34302067 0.0093034 12.04479885 0.00907993 C15.74046143 0.00977962 19.43607434 0.01757463 23.13172817 0.02539158 C25.68620686 0.02725556 28.24068589 0.02867956 30.79516506 0.0296793 C36.84418902 0.03311439 42.89319147 0.04100518 48.9422068 0.05102879 C55.82722346 0.062191 62.71224096 0.06770065 69.59726441 0.07272422 C83.76371022 0.08318783 97.93014009 0.1007866 112.09657192 0.12304783 C112.12369741 1.71930748 112.14302473 3.31570088 112.15907192 4.91211033 C112.17067348 5.80108006 112.18227505 6.69004978 112.19422817 7.60595798 C112.05360747 11.23045654 111.29741512 13.23444114 109.09657192 16.12304783 C107.12832027 17.36140616 105.1682149 18.34211109 103.03407192 19.26367283 C100.84118372 20.17074443 100.84118372 20.17074443 98.09657192 22.12304783 C95.40154761 22.33292548 92.80838254 22.42711162 90.11195278 22.42944431 C88.89180981 22.44192959 88.89180981 22.44192959 87.64701748 22.45466709 C84.95176837 22.47880275 82.25676149 22.4875462 79.56141567 22.49414158 C77.68393793 22.50310959 75.80646092 22.51223147 73.92898464 22.52150059 C69.98718945 22.53800587 66.04547929 22.54569273 62.103652 22.54858494 C57.07219579 22.55395134 52.0415491 22.59155227 47.01032066 22.6373291 C43.1281846 22.66720347 39.24624034 22.67431084 35.36399937 22.67531109 C33.51057216 22.67949762 31.65714356 22.69186849 29.80383015 22.71282864 C11.19080505 22.90646385 11.19080505 22.90646385 3.09657192 17.12304783 C1.58063442 16.04023533 1.58063442 16.04023533 0.03407192 14.93554783 C-2.24641806 12.80218623 -2.86011525 11.8886658 -3.03624058 8.77539158 C-3.03366245 7.87949314 -3.03108433 6.9835947 -3.02842808 6.06054783 C-3.0310062 5.16207127 -3.03358433 4.2635947 -3.03624058 3.33789158 C-2.86942296 0.5559624 -2.78231637 0.1798639 0 0 Z " fill="#050405" transform="translate(558.9034280776978,639.8769521713257)"/>
<path d="M0 0 C6.105 -0.0825 12.21 -0.165 18.5 -0.25 C20.41103516 -0.28641602 22.32207031 -0.32283203 24.29101562 -0.36035156 C25.82941571 -0.37204922 27.3678283 -0.38223849 28.90625 -0.390625 C29.68581055 -0.41108887 30.46537109 -0.43155273 31.26855469 -0.45263672 C36.89358205 -0.45616559 41.36050196 0.71023916 46 4 C50.35305161 9.28568048 52.20798266 15.93225581 51.75 22.6875 C50.450184 28.42835399 48.51869826 33.03011782 44 37 C38.59483157 39.90136547 33.37499685 40.41867472 27.34375 40.29296875 C26.64411133 40.28994751 25.94447266 40.28692627 25.22363281 40.28381348 C22.64893511 40.26830157 20.07445026 40.22641985 17.5 40.1875 C11.725 40.125625 5.95 40.06375 0 40 C0 26.8 0 13.6 0 0 Z " fill="#050407" transform="translate(634,868)"/>
<path d="M0 0 C0 27.39 0 54.78 0 83 C-13.97562298 83 -13.97562298 83 -18.55992126 78.45265198 C-23.01445062 71.99430431 -22.70713632 65.53124671 -22.62890625 57.90234375 C-22.62973656 56.54048981 -22.63220202 55.178636 -22.63621521 53.81678772 C-22.6390605 50.97479777 -22.62449712 48.13360148 -22.59692383 45.29174805 C-22.56280875 41.66465358 -22.56888118 38.03897351 -22.5875864 34.41181087 C-22.59819672 31.60372806 -22.58918303 28.79596966 -22.57420158 25.98791695 C-22.56656307 24.00554329 -22.57384334 22.02313006 -22.58143616 20.04075623 C-22.49206575 13.18441213 -22.25037826 8.50782872 -18 3 C-12.16084317 -1.52534654 -8.15387778 0 0 0 Z " fill="#070509" transform="translate(416,413)"/>
<path d="M0 0 C12.65432099 0 12.65432099 0 18 5 C20.81160672 8.90916404 21.38102816 11.63985048 21.40405273 16.42333984 C21.41673691 17.70171722 21.42942108 18.9800946 21.44248962 20.29721069 C21.44043776 21.68512128 21.43744937 23.07303075 21.43359375 24.4609375 C21.43815873 25.89434048 21.44346524 27.32774128 21.44947815 28.76113892 C21.45839988 31.76207379 21.45599789 34.76274244 21.44604492 37.76367188 C21.43456907 41.59589557 21.45474896 45.42719589 21.48396206 49.25929832 C21.50237487 52.21916475 21.50202138 55.1788121 21.49632454 58.13872147 C21.49617187 59.55082111 21.50217075 60.96293612 21.51461601 62.37498093 C21.61816924 76.05243122 21.61816924 76.05243122 17 82 C11.87613545 86.80362301 7.06375635 86 0 86 C0 57.62 0 29.24 0 0 Z " fill="#040404" transform="translate(813,412)"/>
<path d="M0 0 C0.66 0 1.32 0 2 0 C2.21043945 0.63856934 2.42087891 1.27713867 2.63769531 1.93505859 C4.79398422 8.44311021 7.00065178 14.93224504 9.234375 21.4140625 C9.5192981 22.24194275 9.80422119 23.069823 10.09777832 23.92279053 C11.28535499 27.37342405 12.47305583 30.82400362 13.66552734 34.27294922 C14.54542886 36.81903717 15.42149239 39.36641796 16.296875 41.9140625 C16.56868591 42.69729889 16.84049683 43.48053528 17.12054443 44.2875061 C19 49.77260558 19 49.77260558 19 52 C7.12 52 -4.76 52 -17 52 C-15.13972975 45.17900909 -13.27595673 38.59339002 -10.8984375 31.97265625 C-10.61650543 31.1764537 -10.33457336 30.38025116 -10.0440979 29.55992126 C-9.15813261 27.05943579 -8.26694246 24.56085891 -7.375 22.0625 C-6.47668644 19.53888467 -5.57954154 17.01486722 -4.68447876 14.49009705 C-4.1311814 12.93008903 -3.57591597 11.37077722 -3.0184021 9.81227112 C-1.86404563 6.56380761 -0.7980047 3.35315159 0 0 Z " fill="#050407" transform="translate(517,875)"/>
<path d="M0 0 C5.00876887 0.05617311 8.42835537 2.30183416 12.25 5.375 C16.28375688 9.66899926 16.60062102 14.43347135 16.53515625 20.12890625 C16.08979379 23.63689824 14.48479572 25.70566067 12.25 28.375 C11.63125 29.1175 11.0125 29.86 10.375 30.625 C6.81632843 33.55567071 3.39498611 34.24777932 -1.125 34.75 C-5.67980195 34.27881359 -9.01767165 33.02819863 -12.75 30.375 C-16.82752627 25.25195418 -18.12094746 21.06939833 -18.02734375 14.65234375 C-17.4312292 9.75748767 -14.27427106 6.70214249 -10.75 3.5625 C-6.74589474 0.64283991 -4.87774869 0.48777487 0 0 Z " fill="#8A2DF0" transform="translate(536.75,711.625)"/>
<path d="M0 0 C4.12714004 3.90568374 5.94783464 7.3678641 6.4765625 13.078125 C5.98083689 18.82854209 4.44485054 22.42233696 0.3515625 26.515625 C-5.01533195 30.19878786 -9.20813677 31.22334096 -15.58984375 30.30859375 C-20.35392353 29.02436355 -23.51209549 26.15508075 -26.7734375 22.578125 C-28.73192212 17.27869602 -28.99531464 11.6182667 -26.88671875 6.31640625 C-24.55042395 2.32922805 -22.21223983 -0.52551453 -17.8359375 -2.296875 C-11.75917964 -3.81606447 -5.26820542 -3.72137064 0 0 Z " fill="#8A2DF1" transform="translate(703.8359375,715.296875)"/>
<path d="M0 0 C4.34533762 2.83391584 7.21827251 5.81725388 8.8125 10.8125 C8.91474692 15.82259912 7.77554505 19.52418242 5 23.6875 C1.62888526 27.15776517 -1.1888598 28.17506012 -6 28.25 C-10.9454766 28.16221047 -13.45389841 27.15966984 -17.125 23.875 C-17.125 23.215 -17.125 22.555 -17.125 21.875 C-17.785 21.875 -18.445 21.875 -19.125 21.875 C-21.57577904 17.54202266 -21.82105198 13.76434071 -21.125 8.875 C-16.64610497 0.23713102 -9.50102188 -3.42036788 0 0 Z " fill="#050407" transform="translate(622.125,193.125)"/>
<path d="M0 0 C0.33 0 0.66 0 1 0 C1.36844295 5.77227287 0.46863195 10.7230161 -2 16 C-2.66 16.33 -3.32 16.66 -4 17 C-3.7178711 14.72796198 -3.42397144 12.45738316 -3.125 10.1875 C-2.96257813 8.92292969 -2.80015625 7.65835938 -2.6328125 6.35546875 C-2 3 -2 3 0 0 Z " fill="#9131EF" transform="translate(714,894)"/>
<path d="M0 0 C3.14128754 1.57064377 3.57809687 4.66761078 4.6875 7.8125 C4.92533203 8.44220703 5.16316406 9.07191406 5.40820312 9.72070312 C6.63142274 13.13926116 7.43004376 15.55922805 6 19 C5.67 17.35 5.34 15.7 5 14 C4.34 14 3.68 14 3 14 C2.49528803 12.23050388 1.99639315 10.45934777 1.5 8.6875 C1.2215625 7.70136719 0.943125 6.71523438 0.65625 5.69921875 C0 3 0 3 0 0 Z " fill="#9332EF" transform="translate(563,922)"/>
<path d="M0 0 C3.31096112 3.0562718 5.85033927 6.43485532 8.4375 10.09765625 C10.10145537 12.12352191 11.85076793 13.51313902 14 15 C13.67 15.99 13.34 16.98 13 18 C11.39039445 16.27563834 9.78735966 14.54586672 8.1875 12.8125 C6.84751953 11.36810547 6.84751953 11.36810547 5.48046875 9.89453125 C0 3.4992126 0 3.4992126 0 0 Z " fill="#9230E9" transform="translate(453,545)"/>
<path d="M0 0 C0.66 0.66 1.32 1.32 2 2 C-1.63 2.66 -5.26 3.32 -9 4 C-9 3.34 -9 2.68 -9 2 C-9.66 1.67 -10.32 1.34 -11 1 C-7.07703567 -0.30765478 -4.13997567 -0.1971417 0 0 Z " fill="#110820" transform="translate(698,665)"/>
<path d="M0 0 C5.89126992 1.55033419 11.02060001 4.54911639 16 8 C16.33 8.66 16.66 9.32 17 10 C13.53348339 8.64948994 10.15917934 7.18774065 6.8125 5.5625 C5.95269531 5.15128906 5.09289062 4.74007813 4.20703125 4.31640625 C2 3 2 3 0 0 Z " fill="#9931F5" transform="translate(747,285)"/>
<path d="M0 0 C3.16115776 1.36983503 3.9927092 1.9890638 6 5 C6.37167184 7.76020996 6.17850636 10.18852476 6 13 C5.34 13.66 4.68 14.32 4 15 C4.061875 14.154375 4.12375 13.30875 4.1875 12.4375 C3.9260333 7.64394383 2.13947651 4.27895302 0 0 Z " fill="#9831F3" transform="translate(564,399)"/>
<path d="M0 0 C5.28 0 10.56 0 16 0 C12 3 12 3 8.984375 2.85546875 C7.91703125 2.63503906 6.8496875 2.41460938 5.75 2.1875 C4.67234375 1.97480469 3.5946875 1.76210938 2.484375 1.54296875 C1.66453125 1.36378906 0.8446875 1.18460938 0 1 C0 0.67 0 0.34 0 0 Z " fill="#8027D6" transform="translate(518,645)"/>
<path d="M0 0 C0.33 0 0.66 0 1 0 C0.55966813 5.19591612 0.11696661 8.66335081 -3 13 C-4.43088528 10.13822943 -3.59991697 8.06624227 -3 5 C-2.34 5 -1.68 5 -1 5 C-0.67 3.35 -0.34 1.7 0 0 Z " fill="#9732F3" transform="translate(853,490)"/>
<path d="M0 0 C0.66 0 1.32 0 2 0 C2.33 2.31 2.66 4.62 3 7 C1.35 7.33 -0.3 7.66 -2 8 C-1.34 5.36 -0.68 2.72 0 0 Z " fill="#0B061A" transform="translate(517,875)"/>
<path d="M0 0 C0.33 0 0.66 0 1 0 C2.125 5.75 2.125 5.75 1 8 C0.77532169 9.53668865 0.59203195 11.07968054 0.4375 12.625 C0.35371094 13.44226563 0.26992188 14.25953125 0.18359375 15.1015625 C0.12300781 15.72804688 0.06242188 16.35453125 0 17 C-0.33 17 -0.66 17 -1 17 C-1.02709444 14.91673869 -1.04643873 12.83337559 -1.0625 10.75 C-1.07410156 9.58984375 -1.08570313 8.4296875 -1.09765625 7.234375 C-1.01782092 4.59022872 -0.78643778 2.50173909 0 0 Z " fill="#0B0713" transform="translate(761,718)"/>
<path d="M0 0 C0.99 0.33 1.98 0.66 3 1 C3 1.66 3 2.32 3 3 C2.01 3.495 2.01 3.495 1 4 C0.09656316 5.88263881 0.09656316 5.88263881 -0.625 8.0625 C-0.88539063 8.79597656 -1.14578125 9.52945313 -1.4140625 10.28515625 C-1.60742188 10.85105469 -1.80078125 11.41695312 -2 12 C-3.12377697 8.69564916 -2.89554742 6.9493138 -1.5625 3.75 C-1.27503906 3.04359375 -0.98757813 2.3371875 -0.69140625 1.609375 C-0.46324219 1.07828125 -0.23507812 0.5471875 0 0 Z " fill="#9631F0" transform="translate(481,896)"/>
<path d="M0 0 C1 2 1 2 0.4375 4 C-1.57302108 6.79724672 -3.74418077 7.15065585 -7 8 C-6.02133662 6.85373678 -5.04205413 5.70800212 -4.0625 4.5625 C-3.51722656 3.92441406 -2.97195313 3.28632812 -2.41015625 2.62890625 C-1.63204305 1.73008851 -0.84063472 0.84063472 0 0 Z " fill="#842DDC" transform="translate(764,583)"/>
<path d="M0 0 C3.7952131 1.49097658 5.61042731 3.75700849 8 7 C5 7 5 7 2.3125 4.625 C0 2 0 2 0 0 Z " fill="#852BE0" transform="translate(710,433)"/>
<path d="M0 0 C0.66 0.99 1.32 1.98 2 3 C-0.39509338 5.89932357 -2.31245243 6.50168276 -6 7 C-5.67 6.34 -5.34 5.68 -5 5 C-4.34 5 -3.68 5 -3 5 C-2.67 4.01 -2.34 3.02 -2 2 C-1.34 2 -0.68 2 0 2 C0 1.34 0 0.68 0 0 Z " fill="#872BE1" transform="translate(520,430)"/>
<path d="M0 0 C0.66 0 1.32 0 2 0 C1.34 2.97 0.68 5.94 0 9 C-0.66 8.67 -1.32 8.34 -2 8 C-1.33333333 5.33333333 -0.66666667 2.66666667 0 0 Z " fill="#862DDF" transform="translate(893,949)"/>
<path d="M0 0 C1.52519276 0.08937803 3.04681929 0.24537146 4.5625 0.4375 C5.80193359 0.59025391 5.80193359 0.59025391 7.06640625 0.74609375 C7.70449219 0.82988281 8.34257813 0.91367187 9 1 C7 2 5 3 3 4 C1.68 3.01 0.36 2.02 -1 1 C-0.67 0.67 -0.34 0.34 0 0 Z " fill="#090410" transform="translate(516,638)"/>
<path d="M0 0 C0.68707555 2.49064888 1 4.37886292 1 7 C-0.98 7.66 -2.96 8.32 -5 9 C-3.50163895 5.88801935 -1.80066242 2.9465385 0 0 Z " fill="#9731F7" transform="translate(708,462)"/>
<path d="M0 0 C0.66 0.33 1.32 0.66 2 1 C1.40138258 3.35171131 0.73075648 5.6859378 0 8 C-0.99 8.495 -0.99 8.495 -2 9 C-1.125 1.125 -1.125 1.125 0 0 Z " fill="#0B0418" transform="translate(396,419)"/>
<path d="M0 0 C0.66 0.33 1.32 0.66 2 1 C1.01 1.33 0.02 1.66 -1 2 C-1 2.66 -1 3.32 -1 4 C-1.66 4 -2.32 4 -3 4 C-3.33 4.66 -3.66 5.32 -4 6 C-4.66 5.34 -5.32 4.68 -6 4 C-3.94766315 1.7522025 -2.99332739 0.9977758 0 0 Z " fill="#090512" transform="translate(729,632)"/>
</svg>
